<svg xmlns="http://www.w3.org/2000/svg" width="73" height="43" viewBox="0 0 73 43">
    <path d="M40.25 29.6c-.23.22-.5.39-.81.5-.23.08-.48.13-.74.13h-.06-13.67c-1.27 0-2.3-1.08-2.3-2.4v-2.66-.74-.75-1.19c0-1.32 1.03-2.4 2.3-2.4H38.7c.26 0 .51.05.74.13.31.11.58.28.81.5.46.44.75 1.07.75 1.77v5.34c0 .7-.29 1.33-.75 1.77zm-10.47-4.76c0-.66-.52-1.2-1.15-1.2h-.57-.2c-.26 0-.51.1-.7.26-.28.22-.45.56-.45.94v.8c0 .66.52 1.2 1.15 1.2h.77c.63 0 1.15-.54 1.15-1.2v-.8zm7.65-6.41h-.71-11.75c-.16 0-.31.01-.47.03-.91.11-1.72.55-2.33 1.2-.69.73-1.11 1.74-1.11 2.84v5.33c0 2.25 1.75 4.08 3.91 4.08h13.66v6.69c0 1.33-1.03 2.4-2.3 2.4H2.3C1.03 41 0 39.93 0 38.6V14.9v-2.73-.29c0-.21.03-.43.08-.63.09-.32.23-.61.43-.87.42-.55 1.07-.9 1.8-.9h34.03c1.27 0 2.3 1.08 2.29 2.4v6.55h-.48-.72zM14.83 7.8l11.72-3.33 3.84-1.09c.2-.06.41-.09.61-.09 1.01 0 1.94.7 2.22 1.77l.72 2.74h-5.8-13.31zm-7.49 0L21.98.25c1.13-.59 2.51-.1 3.08 1.08l.87 1.83L9.58 7.8H7.34z" fill="#7F7F7F"/>
    <path d="M46.09 24.63c-.36 0-.65-.3-.65-.66 0-.36.29-.66.65-.66h1.97v-9.18h-1.97c-.36 0-.65-.3-.65-.66 0-.36.29-.66.65-.66h7.88c1.61 0 3.07.65 4.13 1.7l.05.03c1.06 1.07 1.73 2.55 1.73 4.18 0 1.61-.65 3.07-1.69 4.13l-.04.05c-1.07 1.07-2.55 1.73-4.18 1.73h-4.6v1.31h5.91c.36 0 .66.29.66.66 0 .36-.3.65-.66.65h-5.91v3.94h1.97c.37 0 .66.29.66.65 0 .37-.29.66-.66.66h-5.25c-.36 0-.65-.29-.65-.66 0-.36.29-.65.65-.65h1.97v-3.94h-1.97c-.36 0-.65-.29-.65-.65 0-.37.29-.66.65-.66h1.97v-1.31h-1.97zm3.28-1.32h4.6c1.27 0 2.42-.51 3.25-1.34l.03-.03c.81-.83 1.31-1.97 1.31-3.22 0-1.27-.51-2.42-1.34-3.25l-.04-.03c-.82-.81-1.96-1.31-3.21-1.31h-4.6v9.18zm17.48 13.54C63.05 40.65 57.8 43 52 43c-4.06 0-7.84-1.17-11.05-3.17v-1.54c3.15 2.14 6.95 3.4 11.05 3.4 5.43 0 10.36-2.21 13.92-5.77 3.56-3.56 5.77-8.48 5.77-13.92 0-5.44-2.21-10.36-5.77-13.92C62.36 4.52 57.44 2.31 52 2.31c-5.19 0-9.89 2.03-13.41 5.3-.07 0-.14-.02-.21-.02h-.59-.64v-.44C40.95 3.35 46.2 1 52 1c5.8 0 11.05 2.35 14.85 6.15C70.65 10.95 73 16.2 73 22c0 5.8-2.35 11.05-6.15 14.85z" fill="#7F7F7F"/>
</svg>
