<?xml version="1.0" encoding="utf-8"?>
<svg xmlns="http://www.w3.org/2000/svg"
	xmlns:xlink="http://www.w3.org/1999/xlink"
	width="40px" height="40px">
<circle fill="rgb(255,255,255)" cx="20.00" cy="20.00" r="20.00"/>
<path fill="rgb(121,175,33)" fill-rule="evenodd" d="M 22.32 29C 22.32 29 18.78 29 18.78 29 18.78 29 18.78 20 18.78 20 18.78 20 17 20 17 20 17 20 17 16.9 17 16.9 17 16.9 18.78 16.9 18.78 16.9 18.78 16.9 18.78 15.04 18.78 15.04 18.78 12.51 19.77 11 22.61 11 22.61 11 24.98 11 24.98 11 24.98 11 24.98 14.1 24.98 14.1 24.98 14.1 23.5 14.1 23.5 14.1 22.4 14.1 22.32 14.54 22.32 15.35 22.32 15.35 22.32 16.9 22.32 16.9 22.32 16.9 25 16.9 25 16.9 25 16.9 24.68 20 24.68 20 24.68 20 22.32 20 22.32 20 22.32 20 22.32 29 22.32 29Z"/>
</svg>
