<svg xmlns="http://www.w3.org/2000/svg" width="62" height="101" viewBox="0 0 62 101">
    <filter filterUnits="objectBoundingBox" x="0" y="0" width="100" height="101" id="a">
        <feGaussianBlur in="SourceAlpha" result="dsBlurOut1"/>
        <feFlood flood-color="#656565" result="dsFloodOut1"/>
        <feComposite in="dsFloodOut1" in2="dsBlurOut1" operator="in" result="dsShadow1"/>
        <feOffset in="dsShadow1" dy="1" result="dsOffset1"/>
        <feComposite in="dsOffset1" in2="SourceAlpha" operator="out" result="dropShadow1"/>
        <feBlend in="dropShadow1" in2="SourceGraphic" result="sourceGraphic"/>
    </filter>
    <path d="M56.04 49.85c-.53.73-1.09 1.42-1.68 2.1-.62.89-2.06 2.96-4.65 6.81-1.31 1.94-1.83 3.86-2.53 6.78h-9.19c.08-3.69.82-24.64 7.81-31.08 0 0-5.3 3.68-11.17 9.61l-3.35-2.91v-.48l-.28.24-.28-.24v.48l-3.35 2.91c-5.87-5.93-11.17-9.61-11.17-9.61 6.99 6.44 7.73 27.39 7.81 31.08h-9.19c-.7-2.92-1.22-4.84-2.53-6.78-2.57-3.81-4-5.89-4.64-6.79C2.89 46.46 0 39.25 0 31.36 0 14.04 13.88 0 31 0c17.12 0 31 14.04 31 31.36 0 6.91-2.21 13.31-5.96 18.49zm-18.06-5.22s-2.03 7.43-2.76 20.91h-8.44c-.73-13.48-2.76-20.91-2.76-20.91l3.35 3.39L31 44.87l3.63 3.15 3.35-3.39zm8.38 24.3l-.57 5.65H16.21l-.57-5.65c-.05-.2-.09-.38-.14-.57h31c-.05.19-.09.37-.14.57zm-1.43 14.12H17.07l-.63-6.21h29.12l-.63 6.21zm-.8 7.91H17.87l-.51-5.08h27.28l-.51 5.08zm-12.85 8.76v.28c-.1-.05-.19-.09-.28-.14-.09.05-.18.09-.28.14v-.28c-4.14-2.08-7.35-4.27-9.52-5.93h19.6c-2.17 1.66-5.38 3.85-9.52 5.93z" fill="#FFF" filter="url(#a)"/>
</svg>
