<svg xmlns="http://www.w3.org/2000/svg" width="56" height="101" viewBox="0 0 56 101">
    <filter filterUnits="objectBoundingBox" x="0" y="0" width="100" height="101" id="a">
        <feGaussianBlur in="SourceAlpha" result="dsBlurOut1"/>
        <feFlood flood-color="#656565" result="dsFloodOut1"/>
        <feComposite in="dsFloodOut1" in2="dsBlurOut1" operator="in" result="dsShadow1"/>
        <feOffset in="dsShadow1" dy="1" result="dsOffset1"/>
        <feComposite in="dsOffset1" in2="SourceAlpha" operator="out" result="dropShadow1"/>
        <feBlend in="dropShadow1" in2="SourceGraphic" result="sourceGraphic"/>
    </filter>
    <path d="M55.97 30.72c0 .08 0 .16-.01.24-.01.38-.03.78-.05 1.19h-.01c-.02.42-.05.85-.09 1.29-.01.05-.01.1-.02.15-.74 8.37-3.54 20.23-8.52 29.77-1.03 1.98-2.22 3.85-3.51 5.58-.25 3.34-3.91 8.38-6.34 10.59H18.87c-2.4-2.17-5.97-7.08-6.33-10.42-1.21-1.59-2.33-3.32-3.31-5.14C4.01 54.36 1.01 42.21.22 33.65l-.03-.26c-.07-.84-.12-1.65-.15-2.41-.01-.09-.01-.18-.01-.27-.02-.38-.02-.74-.03-1.1h56c-.01.36-.01.73-.03 1.11zm-51 4.25c.77 8.46 4.15 19.88 8.11 29 .89 2.04 1.91 3.96 3.02 5.71.46.11.92.22 1.4.32-1.07-1.84-2.05-3.87-2.89-6.03-3.57-9.12-6.7-20.54-7.4-29H4.97zm5.49 0c.62 8.46 2.51 19.88 5.67 29 .79 2.27 1.71 4.39 2.71 6.29.33.06.68.12 1.02.17-.93-1.94-1.78-4.12-2.51-6.46-2.84-9.12-4.55-20.54-5.1-29h-1.79zm5.33 0c.43 8.46 1.75 19.88 3.97 29 .59 2.45 1.28 4.72 2.05 6.73.37.05.75.09 1.13.13-.63-2.05-1.22-4.36-1.77-6.86-1.98-9.12-3.17-20.54-3.56-29h-1.82zm8.81 29c-1.2-9.12-1.73-20.54-1.89-29h-1.86c.26 8.46 1.05 19.88 2.38 29 .37 2.55.82 4.91 1.3 6.98.35.03.7.05 1.06.06-.33-2.08-.66-4.47-.99-7.04zm2.33-29l1.44 36.1h.44l.41-36.1h-2.29zm6.93 0c-.15 8.27-.63 19.36-1.77 28.39-.35 2.79-.7 5.39-1.05 7.64.36-.02.71-.05 1.06-.07.51-2.23.98-4.81 1.37-7.57 1.27-9.03 2.01-20.12 2.26-28.39h-1.87zm4.82 0c-.37 8.27-1.48 19.36-3.37 28.39-.57 2.72-1.2 5.25-1.88 7.46.38-.04.76-.08 1.13-.13.82-2.18 1.57-4.66 2.19-7.33 2.11-9.03 3.34-20.12 3.75-28.39h-1.82zm5.36 0c-.52 8.27-2.11 19.36-4.82 28.39-.77 2.56-1.68 4.94-2.68 7.05.35-.05.69-.11 1.04-.18 1.07-2.06 2.06-4.39 2.89-6.87 3.01-9.03 4.78-20.12 5.36-28.39h-1.79zm5.04 0c-.66 8.27-3.65 19.36-7.05 28.39-.89 2.37-1.95 4.61-3.1 6.6.48-.1.96-.21 1.43-.32 1.2-1.92 2.3-4.04 3.24-6.28 3.78-9.03 6.99-20.12 7.72-28.39h-2.24zM28 0c14.95 0 27.07 11.98 27.14 26.79H.86C.93 11.98 13.05 0 28 0zm9.41 81.68l-.34 3.33H19.5l-.34-3.33c-.03-.11-.06-.22-.08-.33h18.41c-.02.11-.05.22-.08.33zm-.85 8.33H20.01l-.38-3.66h17.3l-.37 3.66zm-.48 4.66H20.49l-.31-3h16.21l-.31 3zm-7.63 5.16v.17c-.06-.03-.11-.06-.17-.08-.05.02-.1.05-.16.08v-.17c-2.46-1.22-4.37-2.51-5.66-3.49h11.65c-1.29.98-3.2 2.27-5.66 3.49z" fill="#FFF" filter="url(#a)"/>
</svg>
