<?xml version="1.0" encoding="utf-8"?>
<!-- Generator: Adobe Illustrator 16.0.0, SVG Export Plug-In . SVG Version: 6.00 Build 0)  -->
<!DOCTYPE svg PUBLIC "-//W3C//DTD SVG 1.1//EN" "http://www.w3.org/Graphics/SVG/1.1/DTD/svg11.dtd">
<svg version="1.1" xmlns="http://www.w3.org/2000/svg" xmlns:xlink="http://www.w3.org/1999/xlink" x="0px" y="0px" width="140px"
	 height="139px" viewBox="0 0 140 139" enable-background="new 0 0 140 139" xml:space="preserve">
<filter  width="100.00%" id="filter0" filterUnits="objectBoundingBox" height="100.00%" y="0.00%" x="0.00%">
	<feGaussianBlur  stdDeviation="2.50" result="igBlurOut" in="SourceAlpha"></feGaussianBlur>
	<feFlood  flood-color="rgb(255,255,255)" result="igFloodOut"></feFlood>
	<feComposite  operator="out" in2="igBlurOut" result="igRawGlow" in="igFloodOut"></feComposite>
	<feComposite  operator="in" in2="SourceAlpha" result="igRawGlowClipped" in="igRawGlow"></feComposite>
	<feComponentTransfer  result="innerGlow" in="igRawGlowClipped">
		<feFuncA  type="linear" slope="1.00"></feFuncA>
	</feComponentTransfer>
	<feMerge>
		<feMergeNode  in="innerGlow"></feMergeNode>
	</feMerge>
</filter>
<g id="Слой_1">
	<g>
		<g>
			<path id="symbol0" fill="#79AF21" d="M0-10h140v149l-71-20L0,139V-10z"/>
		</g>
		<g filter="url(#filter0)">
			<path id="symbol0_3_" d="M0-10h140v149l-71-20L0,139V-10z"/>
		</g>
		<g>
			<defs>
				<polygon id="SVGID_1_" points="0,-10 140,-10 140,139 69,119 0,139 				"/>
			</defs>
			<clipPath id="SVGID_2_">
				<use xlink:href="#SVGID_1_"  overflow="visible"/>
			</clipPath>
			<g clip-path="url(#SVGID_2_)">
				<path id="symbol0_2_" fill="none" stroke="#79AF21" stroke-width="6" d="M0-10h140v149l-71-20L0,139V-10z"/>
			</g>
		</g>
	</g>
	<path fill="#FFFFFF" d="M80,53.78c-28.86,0-53.8,15.4-65.65,37.739c9.53-24.02,34.59-41.18,64.009-41.18
		c20.23,0,38.391,8.12,50.871,21C116.25,60.44,98.971,53.78,80,53.78z"/>
	<path fill="#FFFFFF" d="M83.811,91.26C81.63,80.75,81.09,73.57,81.09,73.57c-2.449,7.74-4.359,17.689-4.359,17.689h-4.9
		c-1.03-5.09-1.9-11.779-2.49-16.869C64.51,84.38,54.39,91.25,42.69,91.25c-1.32,0-2.62-0.1-3.9-0.27C39,90.99,39.21,91,39.42,91
		c15.04,0,27.24-12.38,27.24-27.66c0-15.27-12.2-27.65-27.24-27.65c-11.65,0-21.59,7.43-25.48,17.89C17.24,40.59,28.86,31,42.69,31
		c16.39,0,29.68,13.49,29.68,30.12c0,0.1,0,0.2,0,0.29V61.4c1.09,12.44,1.64,20.459,1.64,20.459C76.73,70.8,80,61.96,80,61.96h4.359
		c0.82,13.82,4.9,29.3,4.9,29.3H83.811z"/>
</g>
<g id="Слой_2">
	<line fill="none" stroke="#FFFFFF" stroke-miterlimit="10" x1="3.5" y1="3.497" x2="3.5" y2="134.33"/>
	<line fill="none" stroke="#FFFFFF" stroke-miterlimit="10" x1="3.5" y1="134.33" x2="70" y2="114.663"/>
	<line fill="none" stroke="#FFFFFF" stroke-miterlimit="10" x1="70" y1="114.663" x2="136.5" y2="134.33"/>
	<line fill="none" stroke="#FFFFFF" stroke-miterlimit="10" x1="136.5" y1="134.33" x2="136.5" y2="3.497"/>
	<line fill="none" stroke="#FFFFFF" stroke-miterlimit="10" x1="136.5" y1="3.497" x2="3.5" y2="3.497"/>
</g>
</svg>
