<svg xmlns="http://www.w3.org/2000/svg" width="37" height="102" viewBox="0 0 37 102">
    <filter filterUnits="objectBoundingBox" x="0" y="0" width="100" height="100.99" id="a">
        <feGaussianBlur in="SourceAlpha" result="dsBlurOut1"/>
        <feFlood flood-color="#656565" result="dsFloodOut1"/>
        <feComposite in="dsFloodOut1" in2="dsBlurOut1" operator="in" result="dsShadow1"/>
        <feOffset in="dsShadow1" dy="1" result="dsOffset1"/>
        <feComposite in="dsOffset1" in2="SourceAlpha" operator="out" result="dropShadow1"/>
        <feBlend in="dropShadow1" in2="SourceGraphic" result="sourceGraphic"/>
    </filter>
    <path d="M34.65 29.28L4.29 37.52c-1.67.45-3.39-.55-3.84-2.25-.45-1.7.54-3.45 2.22-3.9l30.35-8.24c1.68-.46 3.4.55 3.85 2.25.45 1.7-.55 3.44-2.22 3.9zm0-8.92L4.29 28.6c-1.67.46-3.39-.55-3.84-2.25-.45-1.69.54-3.44 2.22-3.9l30.35-8.24c1.68-.45 3.4.56 3.85 2.26.45 1.69-.55 3.44-2.22 3.89zm0-8.91L4.29 19.69c-1.67.46-3.39-.55-3.84-2.25-.45-1.7.54-3.44 2.22-3.9L33.02 5.3c1.68-.45 3.4.55 3.85 2.25.45 1.7-.55 3.45-2.22 3.9zM16.11 6.28L3.97 9.58C2.3 10.03.57 9.03.12 7.33c-.44-1.7.55-3.45 2.23-3.9L14.49.13c1.67-.45 3.4.55 3.85 2.25.45 1.7-.55 3.45-2.23 3.9zm-13.44 34l30.35-8.24c1.68-.45 3.4.56 3.85 2.25.45 1.7-.55 3.45-2.22 3.9l-1.35.37-3.93 10.94c2.58 1.22 4.37 3.86 4.37 6.93v6.02c-2.85 3.5-5.18 7.46-6.88 11.74-.22.02-.44.07-.66.07H8.6c-.22 0-.44-.05-.66-.07-1.7-4.28-4.02-8.24-6.88-11.74v-6.02c0-3.2 1.95-5.94 4.7-7.08l-.52-3.17-.95.25c-1.67.46-3.39-.55-3.84-2.25-.45-1.7.54-3.44 2.22-3.9zm8.98 8.51h11.69l2.99-8.34-15.82 4.29 1.14 4.05zm.09 28.01h12.57c1.04 0 1.89.86 1.89 1.91 0 1.06-.85 1.91-1.89 1.91H11.74c-1.04 0-1.88-.85-1.88-1.91 0-1.05.84-1.91 1.88-1.91zm0 6.37h12.57c1.04 0 1.89.86 1.89 1.91 0 1.06-.85 1.91-1.89 1.91H11.74c-1.04 0-1.88-.85-1.88-1.91 0-1.05.84-1.91 1.88-1.91zm0 6.37h12.57c1.04 0 1.89.85 1.89 1.91 0 1.05-.85 1.91-1.89 1.91H11.74c-1.04 0-1.88-.86-1.88-1.91 0-1.06.84-1.91 1.88-1.91zM18.03 101c-3.13 0-5.66-2.28-5.66-5.09h11.31c0 2.81-2.53 5.09-5.65 5.09z" fill="#FFF" filter="url(#a)"/>
</svg>
