<svg xmlns="http://www.w3.org/2000/svg" width="19" height="15">
    <path fill="#F2FFE1" fill-rule="evenodd" d="M17.69.01H1.28C.57.01-.01.58-.01 1.28v12.43c0 .7.58 1.28 1.29 1.28h16.41c.72 0 1.3-.58 1.3-1.28V1.28c0-.7-.58-1.27-1.3-1.27zm0 13.09l-4.41-4.35c-.26-.25-.67-.25-.92 0s-.25.65 0 .9l4.13 4.06H2.57L6.7 9.65c.25-.25.25-.65 0-.9s-.66-.25-.92 0l-4.5 4.43V2.22l7.05 6.94c.37.36.86.55 1.38.55.52 0 .57-.19.94-.55l7.04-6.94V13.1zM2.17 1.28h14.64L9.73 8.25c-.24.24-.24.24-.48 0L2.17 1.28z"/>
</svg>
