<svg xmlns="http://www.w3.org/2000/svg" width="16" height="18">
    <path fill="#F00" fill-rule="evenodd" d="M14.99 13.7h-.44v3.59c0 .39-.31.71-.7.71H2.15c-.39 0-.71-.32-.71-.71V13.7h-.43C.45 13.7 0 13.25 0 12.69V7.45c0-.56.45-1.01 1.01-1.01h.43V.71c0-.39.32-.71.71-.71h8.57c.02 0 .05 0 .08.01 0 0 .01 0 .02.01.02 0 .04.01.07.03 0 0 .01 0 .02.01.03.02.05.04.07.06l3.49 3.97c.05.06.08.14.08.22v2.13h.44c.56 0 1.01.45 1.01 1.01v5.24c0 .56-.45 1.01-1.01 1.01zM2.15 17.1h11.7v-3.4H2.15v3.4zm8.7-7c0-.93-.34-1.58-.89-1.99-.51-.38-1.16-.56-2.17-.56-.6 0-1.18.04-1.62.11v5.18c.3.03.74.07 1.36.07 1.04 0 1.89-.22 2.44-.68.51-.43.88-1.12.88-2.13zM1.61 7.66v5.2H2.8v-1.89c.11.02.25.03.41.03.7 0 1.31-.17 1.71-.56.32-.29.49-.73.49-1.25 0-.51-.23-.95-.56-1.22-.36-.28-.88-.42-1.62-.42-.73 0-1.25.05-1.62.11zm12.24-2.99h-3.13c-.2 0-.36-.16-.36-.35V.71H2.15v5.73h11.7V4.67zm1.02 2.92h-3.23v5.27h1.2v-2.12h1.9v-.97h-1.9v-1.2h2.03v-.98zM4.23 9.22c0 .54-.4.86-1.03.86-.17 0-.3 0-.4-.03V8.5c.08-.03.25-.05.49-.05.6 0 .94.29.94.77zm3.56 2.76c-.15 0-.31 0-.41-.02V8.51c.1-.02.27-.05.54-.05 1.03 0 1.67.58 1.66 1.68 0 1.26-.71 1.85-1.79 1.84z"/>
</svg>
