<?xml version="1.0" encoding="utf-8"?>
<svg xmlns="http://www.w3.org/2000/svg"
	xmlns:xlink="http://www.w3.org/1999/xlink"
	width="40px" height="40px">
<circle fill="rgb(216,216,216)" cx="20.00" cy="20.00" r="20.00"/>
<path fill="rgb(255,255,255)" fill-rule="evenodd" d="M 27.24 9.63C 27.24 9.63 29.14 11.53 29.14 11.53 30.18 12.57 29.68 13.83 29.14 15.32 29.14 15.32 26.53 19.77 23.15 23.14 19.57 26.73 15.38 29.08 15.38 29.08 14 29.79 12.64 30.13 11.59 29.08 11.59 29.08 9.69 27.18 9.69 27.18 9.17 26.66 9.06 25.73 9.69 25.29 9.69 25.29 13.49 22.44 13.49 22.44 14.13 22 14.86 21.91 15.38 22.44 15.38 22.44 15.38 22.44 15.38 22.44 15.38 22.44 15.38 22.44 15.38 22.44 15.38 22.44 16.5 23.56 16.5 23.56 17.82 22.58 19.28 21.38 20.6 20.07 21.76 18.9 22.8 17.64 23.66 16.48 23.66 16.48 22.5 15.32 22.5 15.32 21.97 14.8 22.06 14.07 22.5 13.42 22.5 13.42 25.34 9.63 25.34 9.63 25.87 9.1 26.71 9.1 27.24 9.63M 25.4 16.33C 25.4 16.33 23.88 14.8 23.88 14.8 23.54 14.47 23.6 14.01 23.88 13.6 23.88 13.6 25.69 11.18 25.69 11.18 26.02 10.74 26.56 10.85 26.89 11.18 26.89 11.18 28.1 12.39 28.1 12.39 28.57 12.83 28.44 13.87 28.19 14.37 27.07 16.51 24.58 19.8 22.5 21.96 20.09 24.57 14.43 28.13 14.43 28.13 14 28.36 12.78 28.38 12.45 28.05 12.45 28.05 11.24 26.84 11.24 26.84 10.99 26.42 10.88 25.94 11.24 25.63 11.24 25.63 13.66 23.82 13.66 23.82 14.07 23.54 14.53 23.49 14.87 23.82 14.87 23.82 16.35 25.31 16.35 25.31 16.7 25.06 22.29 21.39 25.4 16.33Z"/>
</svg>
