<?xml version="1.0" encoding="utf-8"?>
<svg xmlns="http://www.w3.org/2000/svg"
	xmlns:xlink="http://www.w3.org/1999/xlink"
	width="21px" height="21px">
<path fill="rgb(243,255,225)" fill-rule="evenodd" d="M 18.24 0.63C 18.24 0.63 20.14 2.53 20.14 2.53 21.18 3.57 20.68 4.83 20.14 6.32 20.14 6.32 17.53 10.77 14.15 14.14 10.57 17.73 6.38 20.08 6.38 20.08 5 20.79 3.64 21.13 2.59 20.08 2.59 20.08 0.69 18.18 0.69 18.18 0.17 17.66 0.06 16.72 0.69 16.29 0.69 16.29 4.49 13.44 4.49 13.44 5.13 13 5.86 12.91 6.38 13.44 6.38 13.44 6.38 13.44 6.38 13.44 6.38 13.44 6.38 13.44 6.38 13.44 6.38 13.44 7.5 14.56 7.5 14.56 8.82 13.58 10.28 12.38 11.6 11.07 12.76 9.9 13.8 8.64 14.66 7.48 14.66 7.48 13.5 6.32 13.5 6.32 12.97 5.8 13.06 5.07 13.5 4.42 13.5 4.42 16.34 0.63 16.34 0.63 16.87 0.1 17.71 0.1 18.24 0.63M 16.4 7.33C 16.4 7.33 14.88 5.8 14.88 5.8 14.54 5.47 14.6 5.01 14.88 4.6 14.88 4.6 16.69 2.18 16.69 2.18 17.02 1.74 17.56 1.85 17.89 2.18 17.89 2.18 19.1 3.39 19.1 3.39 19.57 3.83 19.44 4.87 19.19 5.37 18.07 7.51 15.58 10.8 13.5 12.96 11.09 15.57 5.43 19.13 5.43 19.13 5 19.36 3.78 19.38 3.45 19.05 3.45 19.05 2.24 17.84 2.24 17.84 1.99 17.42 1.88 16.94 2.24 16.63 2.24 16.63 4.66 14.82 4.66 14.82 5.07 14.54 5.53 14.49 5.87 14.82 5.87 14.82 7.35 16.31 7.35 16.31 7.7 16.06 13.29 12.39 16.4 7.33Z"/>
</svg>
