<svg xmlns="http://www.w3.org/2000/svg" width="40" height="40">
    <circle fill="#D8D8D8" cx="20" cy="20" r="20"/>
    <path fill="#FFF" fill-rule="evenodd" d="M27.24 9.63l1.9 1.9c1.04 1.04.54 2.3 0 3.79 0 0-2.61 4.45-5.99 7.82-3.58 3.59-7.77 5.94-7.77 5.94-1.38.71-2.74 1.05-3.79 0l-1.9-1.9c-.52-.52-.63-1.45 0-1.89l3.8-2.85c.64-.44 1.37-.53 1.89 0l1.12 1.12c1.32-.98 2.78-2.18 4.1-3.49 1.16-1.17 2.2-2.43 3.06-3.59l-1.16-1.16c-.53-.52-.44-1.25 0-1.9l2.84-3.79c.53-.53 1.37-.53 1.9 0m-1.84 6.7l-1.52-1.53c-.34-.33-.28-.79 0-1.2l1.81-2.42c.33-.44.87-.33 1.2 0l1.21 1.21c.47.44.34 1.48.09 1.98-1.12 2.14-3.61 5.43-5.69 7.59-2.41 2.61-8.07 6.17-8.07 6.17-.43.23-1.65.25-1.98-.08l-1.21-1.21c-.25-.42-.36-.9 0-1.21l2.42-1.81c.41-.28.87-.33 1.21 0l1.48 1.49c.35-.25 5.94-3.92 9.05-8.98z"/>
</svg>
