<svg xmlns="http://www.w3.org/2000/svg" width="75" height="39" viewBox="0 0 75 39">
    <path d="M74.31 29.87l-3.37.9c-.15-.6-.32-1.2-.5-1.78l3.39-.91c.49-.14 1 .16 1.14.65.13.5-.16 1.01-.66 1.14zm-3.56-9.22l-3.18 1.83c-.31-.53-.63-1.06-.97-1.58l3.22-1.86c.44-.25 1.01-.1 1.27.34.26.45.1 1.02-.34 1.27zm-12.8-1.02l3.5-3.49c1.61 1.6 3.05 3.36 4.29 5.26l-4.32 2.49c-1.01-1.53-2.18-2.95-3.47-4.26zm4.2-4.19c-.44-.44-.89-.86-1.35-1.28l2.81-2.81c.36-.36.95-.36 1.31 0 .37.37.37.96 0 1.32l-2.77 2.77zm-2.03-.55c.45.39.88.81 1.31 1.23-.43-.42-.86-.84-1.31-1.23zm-7.93.28l2.46-4.25c1.95 1.13 3.78 2.46 5.45 3.94l-3.5 3.5c-1.36-1.2-2.83-2.27-4.41-3.19zm2.95-5.11c-.53-.31-1.08-.6-1.63-.89l2.1-3.64c.26-.44.83-.59 1.27-.34.45.26.6.83.34 1.27l-2.08 3.6zm-1.7.19c-.14-.08-.28-.15-.42-.22.14.07.28.14.42.22zm.34.18c.29.15.58.31.86.48-.28-.17-.57-.33-.86-.48zm-.34-.18c.12.06.23.12.34.18-.11-.06-.22-.12-.34-.18zm-7.9 2.06l1.26-4.72c2.17.62 4.25 1.44 6.22 2.44l-2.46 4.25c-1.59-.8-3.27-1.46-5.02-1.97zm1.52-5.66c-.6-.17-1.2-.32-1.81-.46l1.14-4.21c.13-.5.64-.79 1.13-.66.5.13.79.64.66 1.14l-1.12 4.19zm-1.19.7c-.29-.08-.58-.14-.87-.21.29.06.58.13.87.21zm-7.46 3.86V6.33c2.26.06 4.46.34 6.59.81l-1.27 4.72c-1.72-.37-3.5-.6-5.32-.65zm-1.86-5.86V.93c0-.51.42-.93.93-.93s.93.42.93.93v4.42c-.31-.01-.62-.01-.93-.01-.31 0-.62 0-.93.01zm0 5.86c-1.82.06-3.6.27-5.31.65l-1.27-4.72c2.12-.48 4.32-.75 6.58-.81v4.88zm-9.76-8.75c-.13-.5.16-1.01.66-1.14.49-.13 1 .16 1.14.66l1.13 4.21c-.61.14-1.21.29-1.81.46l-1.12-4.19zm-4.83 7.56c-.15.08-.3.16-.46.24.16-.08.31-.17.46-.25v.01zm7.47 2.3c-1.74.5-3.42 1.15-5.01 1.95l-2.46-4.25c1.96-1 4.04-1.82 6.21-2.43l1.26 4.73zm-8.21-1.92c-.29.16-.58.32-.86.49.28-.17.57-.33.86-.49zm.28-.14c-.09.05-.19.09-.28.14.09-.05.19-.09.28-.14zm-3.74-3.8c-.26-.45-.11-1.02.34-1.27.44-.26 1.01-.11 1.27.34l2.1 3.63c-.55.29-1.1.58-1.63.89l-2.08-3.59zm5.03 8.7c-1.57.92-3.05 1.99-4.4 3.18l-3.5-3.5c1.66-1.48 3.49-2.8 5.44-3.94l2.46 4.26zm-9.96.26l-2.76-2.77c-.36-.36-.36-.95 0-1.31.36-.36.95-.36 1.31 0l2.81 2.8c-.47.41-.92.84-1.36 1.28zm4.21 4.19c-1.3 1.3-2.46 2.72-3.48 4.25l-4.31-2.49c1.24-1.9 2.68-3.66 4.28-5.26l3.51 3.5zM4.25 20.63c-.45-.26-.6-.83-.34-1.27.26-.44.82-.6 1.27-.34l3.2 1.85c-.34.51-.66 1.04-.97 1.58l-3.16-1.82zm-.22 10.1l-3.34-.89C.2 29.7-.1 29.19.04 28.7c.13-.5.64-.79 1.14-.66l3.36.9c-.19.59-.36 1.19-.51 1.79zm8.56-5.29c-.91 1.6-1.66 3.29-2.24 5.06l-4.84-1.3c.69-2.19 1.62-4.28 2.76-6.25l4.32 2.49zm-3.07 8.25l-4.93-.9c.12-.61.25-1.21.41-1.8l4.84 1.29c-.12.47-.22.94-.32 1.41zm52.87-8.22l4.32-2.49c1.13 1.97 2.06 4.07 2.76 6.26l-4.84 1.3c-.58-1.77-1.33-3.47-2.24-5.07zm8.06 7.77l-4.94.84c-.11-.59-.23-1.18-.38-1.75l4.85-1.3c.18.73.34 1.46.47 2.21zm-32.97 1.49c.68 0 1.33.17 1.89.47l10.16-14.5-.66-.46 3.43-2.94-1.6 4.22-.66-.46L39.9 35.53c.92.67 1.54 1.72 1.65 2.91h29.02V39H4.39v-.56h29.02c.19-2.08 1.94-3.71 4.07-3.71z" fill="#7F7F7F"/>
</svg>
