<svg xmlns="http://www.w3.org/2000/svg" width="40" height="40">
    <circle fill="#79AF21" cx="20" cy="20" r="20"/>
    <path fill="#FFF" fill-rule="evenodd" d="M28.88 29H12.13c-1.17 0-2.13-.88-2.13-1.97V15.69c0-1.08.96-1.97 2.13-1.97h2.38v1.39h-2.38c-.34 0-.63.27-.63.58v11.34c0 .32.29.58.63.58h16.75c.34 0 .63-.26.63-.58V15.69c0-.31-.29-.58-.63-.58H26.5v-1.39h2.38c1.17 0 2.13.89 2.13 1.97v11.34c0 1.09-.96 1.97-2.13 1.97zm-5.89-13.89h-4.97v-1.39h4.97v1.39zm1.68 5.06c-.87 0-1.58-.66-1.58-1.47 0-.59.38-1.1.92-1.33v-4.96c0-1.67-1.54-3.02-3.34-3.02-1.79 0-3.67 1.35-3.67 3.02v5c.5.25.84.73.84 1.29 0 .81-.71 1.47-1.58 1.47-.88 0-1.59-.66-1.59-1.47 0-.55.34-1.03.83-1.28v-5.01C15.5 9.98 18.05 8 20.67 8s4.84 1.98 4.84 4.41v5.05c.44.26.74.72.74 1.24 0 .81-.71 1.47-1.58 1.47z"/>
</svg>
