<?xml version="1.0" encoding="utf-8"?>
<svg xmlns="http://www.w3.org/2000/svg"
	xmlns:xlink="http://www.w3.org/1999/xlink"
	width="14px" height="11px">
<path fill="rgb(255,255,255)" fill-rule="evenodd" d="M 13.58 4.5C 13.58 4.5 9.42 0.41 9.42 0.41 8.85-0.14 7.94-0.14 7.37 0.41 6.81 0.97 6.81 1.87 7.37 2.42 7.37 2.42 9.07 4.08 9.07 4.08 9.07 4.08 1.44 4.08 1.44 4.08 0.65 4.08-0 4.72-0 5.5-0 6.28 0.65 6.92 1.44 6.92 1.44 6.92 9.07 6.92 9.07 6.92 9.07 6.92 7.37 8.58 7.37 8.58 6.81 9.13 6.81 10.03 7.37 10.58 7.66 10.86 8.03 11 8.4 11 8.77 11 9.14 10.86 9.42 10.58 9.42 10.58 13.58 6.5 13.58 6.5 14.14 5.95 14.14 5.05 13.58 4.5Z"/>
</svg>
