<svg xmlns="http://www.w3.org/2000/svg" width="76" height="76" viewBox="0 0 76 76">
    <path d="M74.69 39.31H57c-.72 0-1.31-.59-1.31-1.31 0-.72.59-1.31 1.31-1.31h17.69c.72 0 1.31.59 1.31 1.31 0 .72-.59 1.31-1.31 1.31zm-4.26-18.52l-15.32 8.84c-.63.37-1.43.15-1.79-.48-.36-.62-.15-1.42.48-1.78l15.32-8.85c.63-.36 1.43-.15 1.79.48.36.63.15 1.43-.48 1.79zm-21.8 1.41c-.36.63-1.16.84-1.79.48-.62-.36-.84-1.16-.47-1.79l8.84-15.32c.36-.63 1.16-.84 1.79-.48.63.36.84 1.16.48 1.79L48.63 22.2zm-4.45-2.21c-.18.7-.9 1.11-1.6.92-.7-.18-1.12-.9-.93-1.6l1.19-4.43c.19-.7.9-1.12 1.6-.93.7.19 1.12.91.93 1.61l-1.19 4.43zm-6.18.32c-.72 0-1.31-.59-1.31-1.31V1.31C36.69.59 37.28 0 38 0c.72 0 1.31.59 1.31 1.31V19c0 .72-.59 1.31-1.31 1.31zm-4.58.6c-.7.19-1.42-.22-1.6-.92l-1.19-4.43c-.19-.7.23-1.42.93-1.61.7-.19 1.41.23 1.6.93l1.19 4.43c.19.7-.23 1.42-.93 1.6zm-4.26 1.77c-.63.36-1.43.15-1.79-.48L18.52 6.88c-.36-.63-.15-1.43.48-1.79.63-.36 1.43-.15 1.79.48l8.84 15.32c.37.63.15 1.43-.47 1.79zm-6.48 6.47c-.36.63-1.16.85-1.79.48L5.57 20.79c-.63-.36-.84-1.16-.48-1.79.36-.63 1.16-.84 1.79-.48l15.32 8.85c.63.36.84 1.16.48 1.78zM20.31 38c0 .72-.59 1.31-1.31 1.31H1.31C.59 39.31 0 38.72 0 38c0-.72.59-1.31 1.31-1.31H19c.72 0 1.31.59 1.31 1.31zm-1-3.65l-4.43-1.19c-.7-.19-1.12-.9-.93-1.6.19-.7.91-1.12 1.61-.93l4.43 1.19c.7.18 1.11.9.92 1.6-.18.7-.9 1.12-1.6.93zm.68 9.83l-4.43 1.19c-.7.19-1.42-.23-1.61-.93-.19-.7.23-1.41.93-1.6l4.43-1.19c.7-.19 1.42.23 1.6.93.19.7-.22 1.42-.92 1.6zM5.57 55.21l15.32-8.84c.63-.37 1.43-.15 1.79.47.36.63.15 1.43-.48 1.79L6.88 57.48c-.63.36-1.43.15-1.79-.48-.36-.63-.15-1.43.48-1.79zm21.8-1.41c.36-.63 1.16-.84 1.79-.48.62.36.84 1.16.47 1.79l-8.84 15.32c-.36.63-1.16.84-1.79.48-.63-.36-.84-1.16-.48-1.79l8.85-15.32zm4.45 2.21c.18-.7.9-1.11 1.6-.92.7.18 1.12.9.93 1.6l-1.19 4.43c-.19.7-.9 1.12-1.6.93-.7-.19-1.12-.91-.93-1.61l1.19-4.43zm6.18-.32c.72 0 1.31.59 1.31 1.31v17.69c0 .72-.59 1.31-1.31 1.31-.72 0-1.31-.59-1.31-1.31V57c0-.72.59-1.31 1.31-1.31zm4.58-.6c.7-.19 1.42.22 1.6.92l1.19 4.43c.19.7-.23 1.42-.93 1.61-.7.19-1.41-.23-1.6-.93l-1.19-4.43c-.19-.7.23-1.42.93-1.6zm4.26-1.77c.63-.36 1.43-.15 1.79.48l8.85 15.32c.36.63.15 1.43-.48 1.79-.63.36-1.43.15-1.79-.48l-8.84-15.32c-.37-.63-.15-1.43.47-1.79zm8.76 2.28c-.51.52-1.34.52-1.85 0l-3.24-3.24c-.51-.51-.51-1.34 0-1.85s1.34-.51 1.85 0l3.24 3.24c.52.51.52 1.34 0 1.85zm-30.11-5.09c.51.51.51 1.34 0 1.85l-3.24 3.24c-.51.52-1.34.52-1.85 0-.52-.51-.52-1.34 0-1.85l3.24-3.24c.51-.51 1.34-.51 1.85 0zm-1.85-25.02l-3.24-3.24c-.52-.51-.52-1.34 0-1.85.51-.52 1.34-.52 1.85 0l3.24 3.24c.51.51.51 1.34 0 1.85s-1.34.51-1.85 0zm26.87 0c-.51-.51-.51-1.34 0-1.85l3.24-3.24c.51-.52 1.34-.52 1.85 0 .52.51.52 1.34 0 1.85l-3.24 3.24c-.51.51-1.34.51-1.85 0zM38 52.41c-7.96 0-14.41-6.45-14.41-14.41S30.04 23.59 38 23.59 52.41 30.04 52.41 38 45.96 52.41 38 52.41zm18.01-20.59l4.43-1.19c.7-.19 1.42.23 1.61.93.19.7-.23 1.41-.93 1.6l-4.43 1.19c-.7.19-1.42-.23-1.6-.93-.19-.7.22-1.42.92-1.6zm.68 9.83l4.43 1.19c.7.19 1.12.9.93 1.6-.19.7-.91 1.12-1.61.93l-4.43-1.19c-.7-.18-1.11-.9-.92-1.6.18-.7.9-1.12 1.6-.93zm-3.37 5.19c.36-.62 1.16-.84 1.79-.47l15.32 8.84c.63.36.84 1.16.48 1.79-.36.63-1.16.84-1.79.48L53.8 48.63c-.63-.36-.84-1.16-.48-1.79z" fill="#7F7F7F"/>
</svg>
