<svg xmlns="http://www.w3.org/2000/svg" width="86" height="66" viewBox="0 0 86 66">
    <path d="M36.44 51.55L23.3 50.5c-.19-.01-.35-.13-.43-.3l-4.48-9.74 14.76 2.63c.16.03.31.14.38.29l3.42 7.44c.17.36-.12.76-.51.73zM23.41 19.39l.94.94 1.02-.87 1.02.87.93-.94s-.57 2.06-.77 5.81h-2.37c-.2-3.75-.77-5.81-.77-5.81zm-2.35 6.75c-.01-.06-.02-.11-.04-.16h8.69c-.01.05-.02.1-.04.16l-.16 1.57h-8.29l-.16-1.57zm.23 2.19h8.16l-.18 1.73h-7.81l-.17-1.73zm.25 2.51h7.65l-.14 1.41h-7.36l-.15-1.41zm3.83 3.89c-.03.01-.05.02-.08.03v-.07c-1.16-.58-2.06-1.19-2.67-1.65h5.49c-.6.46-1.5 1.07-2.66 1.65v.07c-.03-.01-.06-.02-.08-.03zm7.01-13.89c-.14.2-.3.4-.46.58-.18.25-.58.83-1.31 1.89-.37.54-.51 1.08-.71 1.89h-2.57c.02-1.03.23-6.85 2.19-8.63 0 0-1.49 1.02-3.13 2.67l-.94-.81v-.14l-.08.07-.08-.07v.14l-.94.81c-1.64-1.65-3.13-2.67-3.13-2.67 1.96 1.78 2.17 7.6 2.19 8.63h-2.58c-.19-.81-.34-1.35-.71-1.89-.72-1.05-1.12-1.63-1.3-1.88-1.33-1.53-2.14-3.53-2.14-5.72 0-4.81 3.89-8.71 8.69-8.71 4.8 0 8.69 3.9 8.69 8.71 0 1.92-.62 3.69-1.68 5.13zm-16.66 9.51c-.11.06-.26.05-.36-.04l-1.72-1.42c-.7 1.41-1 3.04-.77 4.72.15 1.18.56 2.27 1.15 3.22.04.08.05.17.03.26-.02.08-.08.15-.16.2l-3.59 1.97c-.16.08-.35.03-.45-.12-.87-1.47-1.48-3.14-1.72-4.93-.38-2.86.21-5.62 1.51-7.96L7.6 25.2c-.12-.06-.19-.18-.18-.31.01-.14.1-.25.23-.29l4.29-1.29 3.02-.92c.1-.03.2-.01.29.04.08.06.13.14.14.23v.02l.24 3.46.27 3.9c.01.13-.06.25-.18.31zm-1.56 19.56c-.08.16-.24.28-.43.3L.57 51.53c-.4.04-.69-.37-.52-.73l3.5-7.42c.07-.16.21-.26.38-.29l14.46-2.63-4.23 9.45zM4.15 53.46l11.17-.97c.19-.02.36-.14.44-.32l1.68-4.05c.22-.52 1-.36 1 .2v15.1l12.14-2.28v-7.36c0-.3.27-.54.58-.51l1.49.23c.26.03.46.25.46.51v8.55c0 .24-.17.45-.41.51L19.41 65.9c-.64.13-1.3.13-1.95 0L4.32 63.16c-.24-.05-.41-.25-.41-.49l-.23-8.68c-.01-.27.2-.51.47-.53zM84.73 44.44h-1.57l-2.9 17.44c-.3 1.68-1.39 3.12-3.1 3.12H66.8c-1.71 0-2.76-1.47-3.1-3.12l-2.9-17.44h-1.56c-.71 0-1.28-.58-1.28-1.29v-2.57c0-.7.57-1.28 1.28-1.28h25.49c.7 0 1.27.58 1.27 1.28v2.57c0 .71-.57 1.29-1.27 1.29zm-3.37 3.63l-1.54-1.55-1.56 1.57 1.55 1.56 1.54-1.55.01-.03zm-13.2 5.49L69.71 52l-1.55-1.56L66.61 52l1.55 1.56zm0 .78l-1.56 1.57 1.55 1.56 1.56-1.57-1.55-1.56zm.39-.39l1.55 1.56 1.55-1.56-1.55-1.56-1.55 1.56zm1.94 1.95l1.55 1.56 1.55-1.56-1.55-1.56-1.55 1.56zm1.55-2.34l1.56-1.57-1.55-1.56L70.49 52l1.55 1.56zm.39.39l1.55 1.56 1.56-1.57-1.55-1.56-1.56 1.57zm1.94 1.95l1.55 1.56 1.56-1.57-1.55-1.56-1.56 1.57zm1.56-2.35l1.55-1.56-1.55-1.56-1.56 1.56 1.56 1.56zm.38.39l1.56 1.56 1.55-1.56-1.55-1.56-1.56 1.56zm1.55 2.34l-1.55 1.57 1.55 1.56 1.56-1.57-1.56-1.56zm-1.94 1.96l-1.55 1.56 1.55 1.56 1.55-1.56-1.55-1.56zm-.39-.39l-1.55-1.56-1.55 1.56 1.55 1.56 1.55-1.56zm-3.49.39l-1.56 1.57 1.55 1.56 1.56-1.57-1.55-1.56zm-.39-.39l-1.55-1.56-1.56 1.57 1.55 1.56 1.56-1.57zm-3.5.4l-1.55 1.56 1.55 1.56 1.56-1.56-1.56-1.56zm-.38-.39l-1.56-1.56-1.55 1.56 1.55 1.56 1.56-1.56zm-1.55-2.34l1.55-1.57-1.55-1.56-1.56 1.57 1.56 1.56zm0-3.91l1.55-1.56-1.55-1.56-1.55 1.56 1.55 1.56zm1.94-1.95l1.56-1.57-1.55-1.56-1.56 1.57 1.55 1.56zm.39.39l1.55 1.56 1.56-1.57-1.55-1.56-1.56 1.57zm3.5-.4l1.55-1.56-1.55-1.56-1.56 1.56 1.56 1.56zm.38.39l1.56 1.56 1.55-1.56-1.55-1.56-1.56 1.56zm3.5-.39l1.55-1.56-1.55-1.56-1.55 1.56 1.55 1.56zm.39.39l1.55 1.56 1.55-1.56-1.55-1.56-1.55 1.56zm4.88-1l-1 1 .71.71.29-1.71zm-.4 2.38l-.99-.99-1.55 1.56 1.55 1.56.76-.77.23-1.36zm-.44 2.68l.06-.38-.22.22.16.16zm-.12.67l-.43-.44-1.56 1.56 1.55 1.56.44-2.68zm-.6 3.63l-1.39 1.4.99 1 .4-2.4zm-.52 3.05l-1.26-1.26-1.55 1.56 1.62 1.63c.58-.44.99-1.14 1.19-1.93zm-4.61 2.4h1.98c.34 0 .66-.07.94-.19l-1.51-1.52-1.56 1.57.15.14zm1.02-2.1l-1.55-1.56-1.56 1.57 1.55 1.56 1.56-1.57zm-4.91 2.1h2.82l.15-.14-1.56-1.56-1.55 1.56.14.14zm1.03-2.09l-1.56-1.56-1.55 1.56 1.55 1.56 1.56-1.56zm-4.17 2.09h2.08l.14-.14-1.55-1.56-1.53 1.54c.26.11.54.16.86.16zm-1.37-.43l1.65-1.66-1.55-1.56-1.33 1.34c.22.77.64 1.46 1.23 1.88zm-1.37-2.52l1.08-1.09-1.52-1.53.44 2.62zm-.6-3.56l.13.13 1.56-1.56-1.56-1.56-.53.54.4 2.45zm-.51-3.12l.26-.26-.37-.37.11.63zm-.26-1.57l.91.92L65.83 52l-1.55-1.56-1.1 1.1.19 1.11zm-.3-1.78l.82-.82-1.15-1.15.33 1.97zm1.21-1.21l1.55-1.56-1.55-1.56-1.55 1.56 1.55 1.56zm-2.2-4.81l-.01.01.45 2.67 1.37-1.38-1.29-1.3h-.52zm1.3 0l.9.91.91-.91h-1.81zm2.58 0l-1.29 1.3 1.55 1.56 1.56-1.57-1.29-1.29h-.53zm1.31 0l.9.9.9-.9h-1.8zm2.57 0l-1.29 1.29 1.56 1.56 1.55-1.56-1.28-1.29h-.54zm1.31 0l.9.9.9-.9h-1.8zm2.57 0l-1.28 1.29 1.55 1.56 1.55-1.56-1.28-1.29h-.54zm1.32 0l.89.89.9-.89h-1.79zm2.56 0l-1.28 1.28 1.55 1.57 1.56-1.57-1.28-1.28h-.55zm1.33 0l.89.89.88-.89h-1.77zm2.55 0l-1.27 1.28 1.26 1.27.42-2.55h-.41zm3.28-11.57l-3.7 2.32-2.6 1.64c-.09.05-.19.07-.28.03-.09-.03-.16-.1-.19-.18 0-.01-.01-.02-.01-.02l-1.11-3.27-1.25-3.68c-.04-.13 0-.26.09-.35.1-.09.24-.11.35-.05l1.98.93c.3-1.53.17-3.17-.47-4.73-.45-1.1-1.11-2.04-1.9-2.81-.07-.07-.1-.15-.1-.24s.03-.17.09-.23l2.88-2.8c.12-.12.32-.12.45 0 1.2 1.2 2.18 2.65 2.87 4.31 1.09 2.66 1.24 5.46.61 8.04l2.19.49c.13.03.22.13.25.27.02.13-.04.26-.15.33zM61.3 25.05c-.01-.06-.03-.11-.04-.16h8.52c-.01.05-.02.1-.04.16l-.15 1.56h-8.13l-.16-1.56zm.22 2.18h8l-.17 1.72h-7.66l-.17-1.72zm.25 2.5h7.5l-.14 1.41h-7.22l-.14-1.41zm3.75 3.87c-.02.01-.05.02-.08.03v-.07c-1.13-.58-2.02-1.18-2.61-1.64h5.39c-.6.46-1.48 1.06-2.62 1.64v.07c-.03-.01-.05-.02-.08-.03zm6.46-19.17l-4.4 2.21 4.87 3.06c-.01.02-.03.05-.05.08-.14.2-.3.39-.46.58-.17.24-.56.82-1.28 1.88-.36.54-.5 1.06-.69 1.87h-8.9c-.19-.81-.33-1.33-.69-1.87-.71-1.05-1.1-1.63-1.28-1.88-1.31-1.52-2.1-3.51-2.1-5.69C57 9.88 60.82 6 65.52 6c1.84 0 3.55.6 4.94 1.61l-4.53 3.23 6.6-1.11c.16.24.31.48.44.73l-2.09 1.76 1.1 2.21zM36 5.83c1.27-1.19 2.8-2.14 4.53-2.77 2.77-.99 5.64-1.01 8.26-.22l.6-2.25c.03-.13.14-.23.28-.25.13-.01.26.05.33.17l2.22 3.97 1.57 2.8c.05.09.06.19.02.29-.04.09-.11.16-.2.19h-.02l-3.39.99-3.83 1.11c-.13.04-.26-.01-.35-.11-.08-.11-.1-.25-.04-.37l1.05-2.01c-1.56-.39-3.25-.33-4.87.25-1.14.41-2.14 1.05-2.97 1.84-.06.06-.15.09-.24.09-.09-.01-.18-.05-.24-.12L35.97 6.3c-.12-.14-.11-.35.03-.47z" fill="#7F7F7F"/>
</svg>
