<?xml version="1.0" encoding="utf-8"?>
<svg xmlns="http://www.w3.org/2000/svg"
	xmlns:xlink="http://www.w3.org/1999/xlink"
	width="86px" height="66px" viewBox="0 0 86 66">
<path fillRule="evenodd" d="M 36.44 51.55C 36.44 51.55 23.3 50.5 23.3 50.5 23.11 50.49 22.95 50.37 22.87 50.2 22.87 50.2 18.39 40.46 18.39 40.46 18.39 40.46 33.15 43.09 33.15 43.09 33.31 43.12 33.46 43.23 33.53 43.38 33.53 43.38 36.95 50.82 36.95 50.82 37.12 51.18 36.83 51.58 36.44 51.55ZM 23.41 19.39C 23.41 19.39 24.35 20.33 24.35 20.33 24.35 20.33 25.37 19.46 25.37 19.46 25.37 19.46 26.39 20.33 26.39 20.33 26.39 20.33 27.32 19.39 27.32 19.39 27.32 19.39 26.75 21.45 26.55 25.2 26.55 25.2 24.18 25.2 24.18 25.2 23.98 21.45 23.41 19.39 23.41 19.39ZM 21.06 26.14C 21.05 26.08 21.04 26.03 21.02 25.98 21.02 25.98 29.71 25.98 29.71 25.98 29.7 26.03 29.69 26.08 29.67 26.14 29.67 26.14 29.51 27.71 29.51 27.71 29.51 27.71 21.22 27.71 21.22 27.71 21.22 27.71 21.06 26.14 21.06 26.14ZM 21.29 28.33C 21.29 28.33 29.45 28.33 29.45 28.33 29.45 28.33 29.27 30.06 29.27 30.06 29.27 30.06 21.46 30.06 21.46 30.06 21.46 30.06 21.29 28.33 21.29 28.33ZM 21.54 30.84C 21.54 30.84 29.19 30.84 29.19 30.84 29.19 30.84 29.05 32.25 29.05 32.25 29.05 32.25 21.69 32.25 21.69 32.25 21.69 32.25 21.54 30.84 21.54 30.84ZM 25.37 34.73C 25.34 34.74 25.32 34.75 25.29 34.76 25.29 34.76 25.29 34.69 25.29 34.69 24.13 34.11 23.23 33.5 22.62 33.04 22.62 33.04 28.11 33.04 28.11 33.04 27.51 33.5 26.61 34.11 25.45 34.69 25.45 34.69 25.45 34.76 25.45 34.76 25.42 34.75 25.39 34.74 25.37 34.73ZM 32.38 20.84C 32.24 21.04 32.08 21.24 31.92 21.42 31.74 21.67 31.34 22.25 30.61 23.31 30.24 23.85 30.1 24.39 29.9 25.2 29.9 25.2 27.33 25.2 27.33 25.2 27.35 24.17 27.56 18.35 29.52 16.57 29.52 16.57 28.03 17.59 26.39 19.24 26.39 19.24 25.45 18.43 25.45 18.43 25.45 18.43 25.45 18.29 25.45 18.29 25.45 18.29 25.37 18.36 25.37 18.36 25.37 18.36 25.29 18.29 25.29 18.29 25.29 18.29 25.29 18.43 25.29 18.43 25.29 18.43 24.35 19.24 24.35 19.24 22.71 17.59 21.22 16.57 21.22 16.57 23.18 18.35 23.39 24.17 23.41 25.2 23.41 25.2 20.83 25.2 20.83 25.2 20.64 24.39 20.49 23.85 20.12 23.31 19.4 22.26 19 21.68 18.82 21.43 17.49 19.9 16.68 17.9 16.68 15.71 16.68 10.9 20.57 7 25.37 7 30.17 7 34.06 10.9 34.06 15.71 34.06 17.63 33.44 19.4 32.38 20.84ZM 15.72 30.35C 15.61 30.41 15.46 30.4 15.36 30.31 15.36 30.31 13.64 28.89 13.64 28.89 12.94 30.3 12.64 31.93 12.87 33.61 13.02 34.79 13.43 35.88 14.02 36.83 14.06 36.91 14.07 37 14.05 37.09 14.03 37.17 13.97 37.24 13.89 37.29 13.89 37.29 10.3 39.26 10.3 39.26 10.14 39.34 9.95 39.29 9.85 39.14 8.98 37.67 8.37 36 8.13 34.21 7.75 31.35 8.34 28.59 9.64 26.25 9.64 26.25 7.6 25.2 7.6 25.2 7.48 25.14 7.41 25.02 7.42 24.89 7.43 24.75 7.52 24.64 7.65 24.6 7.65 24.6 11.94 23.31 11.94 23.31 11.94 23.31 14.96 22.39 14.96 22.39 15.06 22.36 15.16 22.38 15.25 22.43 15.33 22.49 15.38 22.57 15.39 22.66 15.39 22.67 15.39 22.68 15.39 22.68 15.39 22.68 15.63 26.14 15.63 26.14 15.63 26.14 15.9 30.04 15.9 30.04 15.91 30.17 15.84 30.29 15.72 30.35ZM 14.16 49.91C 14.08 50.07 13.92 50.19 13.73 50.21 13.73 50.21 0.57 51.53 0.57 51.53 0.17 51.57-0.12 51.16 0.05 50.8 0.05 50.8 3.55 43.38 3.55 43.38 3.62 43.22 3.76 43.12 3.93 43.09 3.93 43.09 18.39 40.46 18.39 40.46 18.39 40.46 14.16 49.91 14.16 49.91ZM 4.15 53.46C 4.15 53.46 15.32 52.49 15.32 52.49 15.51 52.47 15.68 52.35 15.76 52.17 15.76 52.17 17.44 48.12 17.44 48.12 17.66 47.6 18.44 47.76 18.44 48.32 18.44 48.32 18.44 63.42 18.44 63.42 18.44 63.42 30.58 61.14 30.58 61.14 30.58 61.14 30.58 53.78 30.58 53.78 30.58 53.48 30.85 53.24 31.16 53.27 31.16 53.27 32.65 53.5 32.65 53.5 32.91 53.53 33.11 53.75 33.11 54.01 33.11 54.01 33.11 62.56 33.11 62.56 33.11 62.8 32.94 63.01 32.7 63.07 32.7 63.07 19.41 65.9 19.41 65.9 18.77 66.03 18.11 66.03 17.46 65.9 17.46 65.9 4.32 63.16 4.32 63.16 4.08 63.11 3.91 62.91 3.91 62.67 3.91 62.67 3.68 53.99 3.68 53.99 3.67 53.72 3.88 53.48 4.15 53.46Z" fill="rgb(127,127,127)"/><path fillRule="evenodd" d="M 84.73 44.44C 84.73 44.44 83.16 44.44 83.16 44.44 83.16 44.44 80.26 61.88 80.26 61.88 79.96 63.56 78.87 65 77.16 65 77.16 65 66.8 65 66.8 65 65.09 65 64.04 63.53 63.7 61.88 63.7 61.88 60.8 44.44 60.8 44.44 60.8 44.44 59.24 44.44 59.24 44.44 58.53 44.44 57.96 43.86 57.96 43.15 57.96 43.15 57.96 40.58 57.96 40.58 57.96 39.88 58.53 39.3 59.24 39.3 59.24 39.3 84.73 39.3 84.73 39.3 85.43 39.3 86 39.88 86 40.58 86 40.58 86 43.15 86 43.15 86 43.86 85.43 44.44 84.73 44.44ZM 81.36 48.07C 81.36 48.07 79.82 46.52 79.82 46.52 79.82 46.52 78.26 48.09 78.26 48.09 78.26 48.09 79.81 49.65 79.81 49.65 79.81 49.65 81.35 48.1 81.35 48.1 81.35 48.1 81.36 48.07 81.36 48.07ZM 68.16 53.56C 68.16 53.56 69.71 52 69.71 52 69.71 52 68.16 50.44 68.16 50.44 68.16 50.44 66.61 52 66.61 52 66.61 52 68.16 53.56 68.16 53.56ZM 68.16 54.34C 68.16 54.34 66.6 55.91 66.6 55.91 66.6 55.91 68.15 57.47 68.15 57.47 68.15 57.47 69.71 55.9 69.71 55.9 69.71 55.9 68.16 54.34 68.16 54.34ZM 68.55 53.95C 68.55 53.95 70.1 55.51 70.1 55.51 70.1 55.51 71.65 53.95 71.65 53.95 71.65 53.95 70.1 52.39 70.1 52.39 70.1 52.39 68.55 53.95 68.55 53.95ZM 70.49 55.9C 70.49 55.9 72.04 57.46 72.04 57.46 72.04 57.46 73.59 55.9 73.59 55.9 73.59 55.9 72.04 54.34 72.04 54.34 72.04 54.34 70.49 55.9 70.49 55.9ZM 72.04 53.56C 72.04 53.56 73.6 51.99 73.6 51.99 73.6 51.99 72.05 50.43 72.05 50.43 72.05 50.43 70.49 52 70.49 52 70.49 52 72.04 53.56 72.04 53.56ZM 72.43 53.95C 72.43 53.95 73.98 55.51 73.98 55.51 73.98 55.51 75.54 53.94 75.54 53.94 75.54 53.94 73.99 52.38 73.99 52.38 73.99 52.38 72.43 53.95 72.43 53.95ZM 74.37 55.9C 74.37 55.9 75.92 57.46 75.92 57.46 75.92 57.46 77.48 55.89 77.48 55.89 77.48 55.89 75.93 54.33 75.93 54.33 75.93 54.33 74.37 55.9 74.37 55.9ZM 75.93 53.55C 75.93 53.55 77.48 51.99 77.48 51.99 77.48 51.99 75.93 50.43 75.93 50.43 75.93 50.43 74.37 51.99 74.37 51.99 74.37 51.99 75.93 53.55 75.93 53.55ZM 76.31 53.94C 76.31 53.94 77.87 55.5 77.87 55.5 77.87 55.5 79.42 53.94 79.42 53.94 79.42 53.94 77.87 52.38 77.87 52.38 77.87 52.38 76.31 53.94 76.31 53.94ZM 77.86 56.28C 77.86 56.28 76.31 57.85 76.31 57.85 76.31 57.85 77.86 59.41 77.86 59.41 77.86 59.41 79.42 57.84 79.42 57.84 79.42 57.84 77.86 56.28 77.86 56.28ZM 75.92 58.24C 75.92 58.24 74.37 59.8 74.37 59.8 74.37 59.8 75.92 61.36 75.92 61.36 75.92 61.36 77.47 59.8 77.47 59.8 77.47 59.8 75.92 58.24 75.92 58.24ZM 75.53 57.85C 75.53 57.85 73.98 56.29 73.98 56.29 73.98 56.29 72.43 57.85 72.43 57.85 72.43 57.85 73.98 59.41 73.98 59.41 73.98 59.41 75.53 57.85 75.53 57.85ZM 72.04 58.24C 72.04 58.24 70.48 59.81 70.48 59.81 70.48 59.81 72.03 61.37 72.03 61.37 72.03 61.37 73.59 59.8 73.59 59.8 73.59 59.8 72.04 58.24 72.04 58.24ZM 71.65 57.85C 71.65 57.85 70.1 56.29 70.1 56.29 70.1 56.29 68.54 57.86 68.54 57.86 68.54 57.86 70.09 59.42 70.09 59.42 70.09 59.42 71.65 57.85 71.65 57.85ZM 68.15 58.25C 68.15 58.25 66.6 59.81 66.6 59.81 66.6 59.81 68.15 61.37 68.15 61.37 68.15 61.37 69.71 59.81 69.71 59.81 69.71 59.81 68.15 58.25 68.15 58.25ZM 67.77 57.86C 67.77 57.86 66.21 56.3 66.21 56.3 66.21 56.3 64.66 57.86 64.66 57.86 64.66 57.86 66.21 59.42 66.21 59.42 66.21 59.42 67.77 57.86 67.77 57.86ZM 66.22 55.52C 66.22 55.52 67.77 53.95 67.77 53.95 67.77 53.95 66.22 52.39 66.22 52.39 66.22 52.39 64.66 53.96 64.66 53.96 64.66 53.96 66.22 55.52 66.22 55.52ZM 66.22 51.61C 66.22 51.61 67.77 50.05 67.77 50.05 67.77 50.05 66.22 48.49 66.22 48.49 66.22 48.49 64.67 50.05 64.67 50.05 64.67 50.05 66.22 51.61 66.22 51.61ZM 68.16 49.66C 68.16 49.66 69.72 48.09 69.72 48.09 69.72 48.09 68.17 46.53 68.17 46.53 68.17 46.53 66.61 48.1 66.61 48.1 66.61 48.1 68.16 49.66 68.16 49.66ZM 68.55 50.05C 68.55 50.05 70.1 51.61 70.1 51.61 70.1 51.61 71.66 50.04 71.66 50.04 71.66 50.04 70.11 48.48 70.11 48.48 70.11 48.48 68.55 50.05 68.55 50.05ZM 72.05 49.65C 72.05 49.65 73.6 48.09 73.6 48.09 73.6 48.09 72.05 46.53 72.05 46.53 72.05 46.53 70.49 48.09 70.49 48.09 70.49 48.09 72.05 49.65 72.05 49.65ZM 72.43 50.04C 72.43 50.04 73.99 51.6 73.99 51.6 73.99 51.6 75.54 50.04 75.54 50.04 75.54 50.04 73.99 48.48 73.99 48.48 73.99 48.48 72.43 50.04 72.43 50.04ZM 75.93 49.65C 75.93 49.65 77.48 48.09 77.48 48.09 77.48 48.09 75.93 46.53 75.93 46.53 75.93 46.53 74.38 48.09 74.38 48.09 74.38 48.09 75.93 49.65 75.93 49.65ZM 76.32 50.04C 76.32 50.04 77.87 51.6 77.87 51.6 77.87 51.6 79.42 50.04 79.42 50.04 79.42 50.04 77.87 48.48 77.87 48.48 77.87 48.48 76.32 50.04 76.32 50.04ZM 81.2 49.04C 81.2 49.04 80.2 50.04 80.2 50.04 80.2 50.04 80.91 50.75 80.91 50.75 80.91 50.75 81.2 49.04 81.2 49.04ZM 80.8 51.42C 80.8 51.42 79.81 50.43 79.81 50.43 79.81 50.43 78.26 51.99 78.26 51.99 78.26 51.99 79.81 53.55 79.81 53.55 79.81 53.55 80.57 52.78 80.57 52.78 80.57 52.78 80.8 51.42 80.8 51.42ZM 80.36 54.1C 80.36 54.1 80.42 53.72 80.42 53.72 80.42 53.72 80.2 53.94 80.2 53.94 80.2 53.94 80.36 54.1 80.36 54.1ZM 80.24 54.77C 80.24 54.77 79.81 54.33 79.81 54.33 79.81 54.33 78.25 55.89 78.25 55.89 78.25 55.89 79.8 57.45 79.8 57.45 79.8 57.45 80.24 54.77 80.24 54.77ZM 79.64 58.4C 79.64 58.4 78.25 59.8 78.25 59.8 78.25 59.8 79.24 60.8 79.24 60.8 79.24 60.8 79.64 58.4 79.64 58.4ZM 79.12 61.45C 79.12 61.45 77.86 60.19 77.86 60.19 77.86 60.19 76.31 61.75 76.31 61.75 76.31 61.75 77.93 63.38 77.93 63.38 78.51 62.94 78.92 62.24 79.12 61.45ZM 74.51 63.85C 74.51 63.85 76.49 63.85 76.49 63.85 76.83 63.85 77.15 63.78 77.43 63.66 77.43 63.66 75.92 62.14 75.92 62.14 75.92 62.14 74.36 63.71 74.36 63.71 74.36 63.71 74.51 63.85 74.51 63.85ZM 75.53 61.75C 75.53 61.75 73.98 60.19 73.98 60.19 73.98 60.19 72.42 61.76 72.42 61.76 72.42 61.76 73.97 63.32 73.97 63.32 73.97 63.32 75.53 61.75 75.53 61.75ZM 70.62 63.85C 70.62 63.85 73.44 63.85 73.44 63.85 73.44 63.85 73.59 63.71 73.59 63.71 73.59 63.71 72.03 62.15 72.03 62.15 72.03 62.15 70.48 63.71 70.48 63.71 70.48 63.71 70.62 63.85 70.62 63.85ZM 71.65 61.76C 71.65 61.76 70.09 60.2 70.09 60.2 70.09 60.2 68.54 61.76 68.54 61.76 68.54 61.76 70.09 63.32 70.09 63.32 70.09 63.32 71.65 61.76 71.65 61.76ZM 67.48 63.85C 67.48 63.85 69.56 63.85 69.56 63.85 69.56 63.85 69.7 63.71 69.7 63.71 69.7 63.71 68.15 62.15 68.15 62.15 68.15 62.15 66.62 63.69 66.62 63.69 66.88 63.8 67.16 63.85 67.48 63.85ZM 66.11 63.42C 66.11 63.42 67.76 61.76 67.76 61.76 67.76 61.76 66.21 60.2 66.21 60.2 66.21 60.2 64.88 61.54 64.88 61.54 65.1 62.31 65.52 63 66.11 63.42ZM 64.74 60.9C 64.74 60.9 65.82 59.81 65.82 59.81 65.82 59.81 64.3 58.28 64.3 58.28 64.3 58.28 64.74 60.9 64.74 60.9ZM 64.14 57.34C 64.14 57.34 64.27 57.47 64.27 57.47 64.27 57.47 65.83 55.91 65.83 55.91 65.83 55.91 64.27 54.35 64.27 54.35 64.27 54.35 63.74 54.89 63.74 54.89 63.74 54.89 64.14 57.34 64.14 57.34ZM 63.63 54.22C 63.63 54.22 63.89 53.96 63.89 53.96 63.89 53.96 63.52 53.59 63.52 53.59 63.52 53.59 63.63 54.22 63.63 54.22ZM 63.37 52.65C 63.37 52.65 64.28 53.57 64.28 53.57 64.28 53.57 65.83 52 65.83 52 65.83 52 64.28 50.44 64.28 50.44 64.28 50.44 63.18 51.54 63.18 51.54 63.18 51.54 63.37 52.65 63.37 52.65ZM 63.07 50.87C 63.07 50.87 63.89 50.05 63.89 50.05 63.89 50.05 62.74 48.9 62.74 48.9 62.74 48.9 63.07 50.87 63.07 50.87ZM 64.28 49.66C 64.28 49.66 65.83 48.1 65.83 48.1 65.83 48.1 64.28 46.54 64.28 46.54 64.28 46.54 62.73 48.1 62.73 48.1 62.73 48.1 64.28 49.66 64.28 49.66ZM 62.08 44.85C 62.08 44.85 62.07 44.86 62.07 44.86 62.07 44.86 62.52 47.53 62.52 47.53 62.52 47.53 63.89 46.15 63.89 46.15 63.89 46.15 62.6 44.85 62.6 44.85 62.6 44.85 62.08 44.85 62.08 44.85ZM 63.38 44.85C 63.38 44.85 64.28 45.76 64.28 45.76 64.28 45.76 65.19 44.85 65.19 44.85 65.19 44.85 63.38 44.85 63.38 44.85ZM 65.96 44.85C 65.96 44.85 64.67 46.15 64.67 46.15 64.67 46.15 66.22 47.71 66.22 47.71 66.22 47.71 67.78 46.14 67.78 46.14 67.78 46.14 66.49 44.85 66.49 44.85 66.49 44.85 65.96 44.85 65.96 44.85ZM 67.27 44.85C 67.27 44.85 68.17 45.75 68.17 45.75 68.17 45.75 69.07 44.85 69.07 44.85 69.07 44.85 67.27 44.85 67.27 44.85ZM 69.84 44.85C 69.84 44.85 68.55 46.14 68.55 46.14 68.55 46.14 70.11 47.7 70.11 47.7 70.11 47.7 71.66 46.14 71.66 46.14 71.66 46.14 70.38 44.85 70.38 44.85 70.38 44.85 69.84 44.85 69.84 44.85ZM 71.15 44.85C 71.15 44.85 72.05 45.75 72.05 45.75 72.05 45.75 72.95 44.85 72.95 44.85 72.95 44.85 71.15 44.85 71.15 44.85ZM 73.72 44.85C 73.72 44.85 72.44 46.14 72.44 46.14 72.44 46.14 73.99 47.7 73.99 47.7 73.99 47.7 75.54 46.14 75.54 46.14 75.54 46.14 74.26 44.85 74.26 44.85 74.26 44.85 73.72 44.85 73.72 44.85ZM 75.04 44.85C 75.04 44.85 75.93 45.74 75.93 45.74 75.93 45.74 76.83 44.85 76.83 44.85 76.83 44.85 75.04 44.85 75.04 44.85ZM 77.6 44.85C 77.6 44.85 76.32 46.13 76.32 46.13 76.32 46.13 77.87 47.7 77.87 47.7 77.87 47.7 79.43 46.13 79.43 46.13 79.43 46.13 78.15 44.85 78.15 44.85 78.15 44.85 77.6 44.85 77.6 44.85ZM 78.93 44.85C 78.93 44.85 79.82 45.74 79.82 45.74 79.82 45.74 80.7 44.85 80.7 44.85 80.7 44.85 78.93 44.85 78.93 44.85ZM 81.48 44.85C 81.48 44.85 80.21 46.13 80.21 46.13 80.21 46.13 81.47 47.4 81.47 47.4 81.47 47.4 81.89 44.85 81.89 44.85 81.89 44.85 81.48 44.85 81.48 44.85ZM 84.76 33.28C 84.76 33.28 81.06 35.6 81.06 35.6 81.06 35.6 78.46 37.24 78.46 37.24 78.37 37.29 78.27 37.31 78.18 37.27 78.09 37.24 78.02 37.17 77.99 37.09 77.99 37.08 77.98 37.07 77.98 37.07 77.98 37.07 76.87 33.8 76.87 33.8 76.87 33.8 75.62 30.12 75.62 30.12 75.58 29.99 75.62 29.86 75.71 29.77 75.81 29.68 75.95 29.66 76.06 29.72 76.06 29.72 78.04 30.65 78.04 30.65 78.34 29.12 78.21 27.48 77.57 25.92 77.12 24.82 76.46 23.88 75.67 23.11 75.6 23.04 75.57 22.96 75.57 22.87 75.57 22.78 75.6 22.7 75.66 22.64 75.66 22.64 78.54 19.84 78.54 19.84 78.66 19.72 78.86 19.72 78.99 19.84 80.19 21.04 81.17 22.49 81.86 24.15 82.95 26.81 83.1 29.61 82.47 32.19 82.47 32.19 84.66 32.68 84.66 32.68 84.79 32.71 84.88 32.81 84.91 32.95 84.93 33.08 84.87 33.21 84.76 33.28ZM 61.3 25.05C 61.29 24.99 61.27 24.94 61.26 24.89 61.26 24.89 69.78 24.89 69.78 24.89 69.77 24.94 69.76 24.99 69.74 25.05 69.74 25.05 69.59 26.61 69.59 26.61 69.59 26.61 61.46 26.61 61.46 26.61 61.46 26.61 61.3 25.05 61.3 25.05ZM 61.52 27.23C 61.52 27.23 69.52 27.23 69.52 27.23 69.52 27.23 69.35 28.95 69.35 28.95 69.35 28.95 61.69 28.95 61.69 28.95 61.69 28.95 61.52 27.23 61.52 27.23ZM 61.77 29.73C 61.77 29.73 69.27 29.73 69.27 29.73 69.27 29.73 69.13 31.14 69.13 31.14 69.13 31.14 61.91 31.14 61.91 31.14 61.91 31.14 61.77 29.73 61.77 29.73ZM 65.52 33.6C 65.5 33.61 65.47 33.62 65.44 33.63 65.44 33.63 65.44 33.56 65.44 33.56 64.31 32.98 63.42 32.38 62.83 31.92 62.83 31.92 68.22 31.92 68.22 31.92 67.62 32.38 66.74 32.98 65.6 33.56 65.6 33.56 65.6 33.63 65.6 33.63 65.57 33.62 65.55 33.61 65.52 33.6ZM 71.98 14.43C 71.98 14.43 67.58 16.64 67.58 16.64 67.58 16.64 72.45 19.7 72.45 19.7 72.44 19.72 72.42 19.75 72.4 19.78 72.26 19.98 72.1 20.17 71.94 20.36 71.77 20.6 71.38 21.18 70.66 22.24 70.3 22.78 70.16 23.3 69.97 24.11 69.97 24.11 61.07 24.11 61.07 24.11 60.88 23.3 60.74 22.78 60.38 22.24 59.67 21.19 59.28 20.61 59.1 20.36 57.79 18.84 57 16.85 57 14.67 57 9.88 60.82 6 65.52 6 67.36 6 69.07 6.6 70.46 7.61 70.46 7.61 65.93 10.84 65.93 10.84 65.93 10.84 72.53 9.73 72.53 9.73 72.69 9.97 72.84 10.21 72.97 10.46 72.97 10.46 70.88 12.22 70.88 12.22 70.88 12.22 71.98 14.43 71.98 14.43Z" fill="rgb(127,127,127)"/><path fillRule="evenodd" d="M 36 5.83C 37.27 4.64 38.8 3.69 40.53 3.06 43.3 2.07 46.17 2.05 48.79 2.84 48.79 2.84 49.39 0.59 49.39 0.59 49.42 0.46 49.53 0.36 49.67 0.34 49.8 0.33 49.93 0.39 50 0.51 50 0.51 52.22 4.48 52.22 4.48 52.22 4.48 53.79 7.28 53.79 7.28 53.84 7.37 53.85 7.47 53.81 7.57 53.77 7.66 53.7 7.73 53.61 7.76 53.61 7.76 53.6 7.76 53.59 7.76 53.59 7.76 50.2 8.75 50.2 8.75 50.2 8.75 46.37 9.86 46.37 9.86 46.24 9.9 46.11 9.85 46.02 9.75 45.94 9.64 45.92 9.5 45.98 9.38 45.98 9.38 47.03 7.37 47.03 7.37 45.47 6.98 43.78 7.04 42.16 7.62 41.02 8.03 40.02 8.67 39.19 9.46 39.13 9.52 39.04 9.55 38.95 9.55 38.86 9.54 38.77 9.5 38.71 9.43 38.71 9.43 35.97 6.3 35.97 6.3 35.85 6.16 35.86 5.95 36 5.83Z" fill="rgb(127,127,127)"/></svg>
