<svg xmlns="http://www.w3.org/2000/svg" xmlns:xlink="http://www.w3.org/1999/xlink" width="50" height="128">
    <clipPath id="b">
        <use xlink:href="#a"/>
    </clipPath>
    <defs>
        <path id="a" fill-rule="evenodd" d="M26.43 80.25c-.92 0-1.84-.35-2.54-1.04L11.04 66.48c-1.39-1.37-1.39-3.59 0-4.96l12.85-12.73c1.39-1.38 3.66-1.39 5.05-.02 1.4 1.37 1.41 3.59.02 4.97L18.6 64l10.36 10.26c1.39 1.38 1.38 3.6-.02 4.97-.69.68-1.6 1.02-2.51 1.02z"/>
    </defs>
    <path opacity=".7" fill-rule="evenodd" d="M0 128.04V-.04C28.72 7.12 50 33.07 50 64c0 30.93-21.28 56.88-50 64.04z"/>
    <use xlink:href="#a" fill="#FFF"/>
    <use clip-path="url(#b)" xlink:href="#a" fill="none" stroke="#000" stroke-width="2"/>
</svg>
