<svg xmlns="http://www.w3.org/2000/svg" width="40" height="40">
    <circle fill="#79AF21" cx="20" cy="20" r="20"/>
    <path fill="#FFF" fill-rule="evenodd" d="M31 19.46c-.74.12-1.81-.01-2.38-.24 1.18-.09 1.98-.61 2.29-1.31-.43.25-1.75.53-2.48.26-.03-.16-.07-.32-.11-.46-.56-1.98-2.46-3.57-4.45-3.38.16-.06.32-.12.48-.17.22-.08 1.51-.28 1.31-.72-.17-.39-1.75.29-2.04.38.39-.14 1.04-.39 1.1-.82-.59.08-1.18.35-1.64.75.17-.17.29-.38.32-.6-1.6.99-2.53 2.98-3.29 4.91-.59-.56-1.12-1-1.59-1.24-1.32-.68-2.9-1.4-5.39-2.29-.07.79.41 1.85 1.8 2.55-.3-.04-.85.05-1.29.15.18.91.76 1.66 2.35 2.03-.73.04-1.1.2-1.44.55.33.63 1.14 1.37 2.58 1.22-1.61.67-.65 1.92.66 1.73-2.24 2.24-5.76 2.08-7.79.21 5.29 6.97 16.78 4.12 18.49-2.6 1.29.01 2.04-.43 2.51-.91z"/>
</svg>
