<?xml version="1.0" encoding="utf-8"?>
<svg xmlns="http://www.w3.org/2000/svg"
	xmlns:xlink="http://www.w3.org/1999/xlink"
	width="29px" height="20px">
<path fill="rgb(255,255,255)" fill-rule="evenodd" d="M 21.75 20C 21.75 20 6.34 20 6.34 20 2.84 20-0 17.15-0 13.64-0 10.75 1.93 8.34 4.55 7.56 4.55 7.46 4.53 7.37 4.53 7.27 4.53 4.76 6.56 2.73 9.06 2.73 9.56 2.73 10.04 2.83 10.49 2.98 11.81 1.18 13.92-0 16.31-0 19.76-0 22.63 2.42 23.37 5.65 26.59 6.39 29 9.27 29 12.73 29 16.74 25.75 20 21.75 20ZM 16.31 12.73C 16.31 12.73 16.31 7.27 16.31 7.27 16.31 7.27 12.69 7.27 12.69 7.27 12.69 7.27 12.69 12.73 12.69 12.73 12.69 12.73 9.91 12.73 9.91 12.73 9.91 12.73 14.5 17.33 14.5 17.33 14.5 17.33 19.09 12.73 19.09 12.73 19.09 12.73 16.31 12.73 16.31 12.73Z"/>
</svg>
