<?xml version="1.0" encoding="utf-8"?>
<svg xmlns="http://www.w3.org/2000/svg"
	xmlns:xlink="http://www.w3.org/1999/xlink"
	width="73px" height="43px" viewBox="0 0 73 43">
<path fillRule="evenodd" d="M 40.25 29.6C 40.02 29.82 39.75 29.99 39.44 30.1 39.21 30.18 38.96 30.23 38.7 30.23 38.7 30.23 38.64 30.23 38.64 30.23 38.64 30.23 24.97 30.23 24.97 30.23 23.7 30.23 22.67 29.15 22.67 27.83 22.67 27.83 22.67 25.17 22.67 25.17 22.67 25.17 22.67 24.43 22.67 24.43 22.67 24.43 22.67 23.68 22.67 23.68 22.67 23.68 22.67 22.49 22.67 22.49 22.67 21.17 23.7 20.09 24.97 20.09 24.97 20.09 35.3 20.09 35.3 20.09 35.3 20.09 37.88 20.09 37.88 20.09 37.88 20.09 38.59 20.09 38.59 20.09 38.59 20.09 38.64 20.09 38.64 20.09 38.64 20.09 38.7 20.09 38.7 20.09 38.96 20.09 39.21 20.14 39.44 20.22 39.75 20.33 40.02 20.5 40.25 20.72 40.71 21.16 41 21.79 41 22.49 41 22.49 41 27.83 41 27.83 41 28.53 40.71 29.16 40.25 29.6ZM 29.78 24.84C 29.78 24.18 29.26 23.64 28.63 23.64 28.63 23.64 28.06 23.64 28.06 23.64 28.06 23.64 27.86 23.64 27.86 23.64 27.6 23.64 27.35 23.74 27.16 23.9 26.88 24.12 26.71 24.46 26.71 24.84 26.71 24.84 26.71 25.64 26.71 25.64 26.71 26.3 27.23 26.84 27.86 26.84 27.86 26.84 28.63 26.84 28.63 26.84 29.26 26.84 29.78 26.3 29.78 25.64 29.78 25.64 29.78 24.84 29.78 24.84ZM 37.43 18.43C 37.43 18.43 36.72 18.43 36.72 18.43 36.72 18.43 24.97 18.43 24.97 18.43 24.81 18.43 24.66 18.44 24.5 18.46 23.59 18.57 22.78 19.01 22.17 19.66 21.48 20.39 21.06 21.4 21.06 22.5 21.06 22.5 21.06 24.15 21.06 24.15 21.06 24.15 21.06 24.89 21.06 24.89 21.06 24.89 21.06 25.64 21.06 25.64 21.06 25.64 21.06 27.83 21.06 27.83 21.06 30.08 22.81 31.91 24.97 31.91 24.97 31.91 38.63 31.91 38.63 31.91 38.63 31.91 38.63 38.6 38.63 38.6 38.63 39.93 37.6 41 36.33 41 36.33 41 2.3 41 2.3 41 1.03 41-0 39.93-0 38.6-0 38.6-0 14.9-0 14.9-0 14.9-0 12.17-0 12.17-0 12.17-0 11.88-0 11.88-0 11.67 0.03 11.45 0.08 11.25 0.17 10.93 0.31 10.64 0.51 10.38 0.93 9.83 1.58 9.48 2.31 9.48 2.31 9.48 3.68 9.48 3.68 9.48 3.68 9.48 4.09 9.48 4.09 9.48 4.09 9.48 6.3 9.48 6.3 9.48 6.3 9.48 8.92 9.48 8.92 9.48 8.92 9.48 28.94 9.48 28.94 9.48 28.94 9.48 34.38 9.48 34.38 9.48 34.38 9.48 35.1 9.48 35.1 9.48 35.1 9.48 35.81 9.48 35.81 9.48 35.81 9.48 36.34 9.48 36.34 9.48 37.61 9.48 38.64 10.56 38.63 11.88 38.63 11.88 38.63 18.43 38.63 18.43 38.63 18.43 38.15 18.43 38.15 18.43 38.15 18.43 37.43 18.43 37.43 18.43ZM 14.83 7.8C 14.83 7.8 26.55 4.47 26.55 4.47 26.55 4.47 30.39 3.38 30.39 3.38 30.59 3.32 30.8 3.29 31 3.29 32.01 3.29 32.94 3.99 33.22 5.06 33.22 5.06 33.94 7.8 33.94 7.8 33.94 7.8 28.14 7.8 28.14 7.8 28.14 7.8 14.83 7.8 14.83 7.8ZM 7.34 7.8C 7.34 7.8 21.98 0.25 21.98 0.25 23.11-0.34 24.49 0.15 25.06 1.33 25.06 1.33 25.93 3.16 25.93 3.16 25.93 3.16 9.58 7.8 9.58 7.8 9.58 7.8 7.34 7.8 7.34 7.8Z" fill="rgb(127,127,127)"/><path fillRule="evenodd" d="M 46.09 24.63C 45.73 24.63 45.44 24.33 45.44 23.97 45.44 23.61 45.73 23.31 46.09 23.31 46.09 23.31 48.06 23.31 48.06 23.31 48.06 23.31 48.06 14.13 48.06 14.13 48.06 14.13 46.09 14.13 46.09 14.13 45.73 14.13 45.44 13.83 45.44 13.47 45.44 13.11 45.73 12.81 46.09 12.81 46.09 12.81 53.97 12.81 53.97 12.81 55.58 12.81 57.04 13.46 58.1 14.51 58.1 14.51 58.15 14.54 58.15 14.54 59.21 15.61 59.88 17.09 59.88 18.72 59.88 20.33 59.23 21.79 58.19 22.85 58.19 22.85 58.15 22.9 58.15 22.9 57.08 23.97 55.6 24.63 53.97 24.63 53.97 24.63 53.97 24.63 53.97 24.63 53.97 24.63 53.97 24.63 53.97 24.63 53.97 24.63 49.37 24.63 49.37 24.63 49.37 24.63 49.37 25.94 49.37 25.94 49.37 25.94 55.28 25.94 55.28 25.94 55.64 25.94 55.94 26.23 55.94 26.6 55.94 26.96 55.64 27.25 55.28 27.25 55.28 27.25 49.37 27.25 49.37 27.25 49.37 27.25 49.37 31.19 49.37 31.19 49.37 31.19 51.34 31.19 51.34 31.19 51.71 31.19 52 31.48 52 31.84 52 32.21 51.71 32.5 51.34 32.5 51.34 32.5 46.09 32.5 46.09 32.5 45.73 32.5 45.44 32.21 45.44 31.84 45.44 31.48 45.73 31.19 46.09 31.19 46.09 31.19 48.06 31.19 48.06 31.19 48.06 31.19 48.06 27.25 48.06 27.25 48.06 27.25 46.09 27.25 46.09 27.25 45.73 27.25 45.44 26.96 45.44 26.6 45.44 26.23 45.73 25.94 46.09 25.94 46.09 25.94 48.06 25.94 48.06 25.94 48.06 25.94 48.06 24.63 48.06 24.63 48.06 24.63 46.09 24.63 46.09 24.63ZM 49.37 23.31C 49.37 23.31 53.97 23.31 53.97 23.31 53.97 23.31 53.97 23.31 53.97 23.31 53.97 23.31 53.97 23.31 53.97 23.31 55.24 23.31 56.39 22.8 57.22 21.97 57.22 21.97 57.25 21.94 57.25 21.94 58.06 21.11 58.56 19.97 58.56 18.72 58.56 17.45 58.05 16.3 57.22 15.47 57.22 15.47 57.18 15.44 57.18 15.44 56.36 14.63 55.22 14.13 53.97 14.13 53.97 14.13 49.37 14.13 49.37 14.13 49.37 14.13 49.37 23.31 49.37 23.31ZM 66.85 36.85C 63.05 40.65 57.8 43 52 43 47.94 43 44.16 41.83 40.95 39.83 40.95 39.83 40.95 38.29 40.95 38.29 44.1 40.43 47.9 41.69 52 41.69 57.43 41.69 62.36 39.48 65.92 35.92 69.48 32.36 71.69 27.44 71.69 22 71.69 16.56 69.48 11.64 65.92 8.08 62.36 4.52 57.44 2.31 52 2.31 46.81 2.31 42.11 4.34 38.59 7.61 38.52 7.61 38.45 7.59 38.38 7.59 38.38 7.59 37.79 7.59 37.79 7.59 37.79 7.59 37.15 7.59 37.15 7.59 37.15 7.59 37.15 7.15 37.15 7.15 40.95 3.35 46.2 1 52 1 57.8 1 63.05 3.35 66.85 7.15 70.65 10.95 73 16.2 73 22 73 27.8 70.65 33.05 66.85 36.85Z" fill="rgb(127,127,127)"/></svg>
