<?xml version="1.0" encoding="utf-8"?>
<svg xmlns="http://www.w3.org/2000/svg"
	xmlns:xlink="http://www.w3.org/1999/xlink"
	width="62px" height="101px" viewBox="0 0 62 101">
<filter filterUnits="objectBoundingBox" x="0.00" y="0.00" width="100.00" height="101.00" id="filter0">
<feGaussianBlur in="SourceAlpha" stdDeviation="0.00" result="dsBlurOut1"/>
<feFlood flood-color="rgb(101,101,101)" result="dsFloodOut1"/>
<feComposite in="dsFloodOut1" in2="dsBlurOut1" operator="in" result="dsShadow1"/>
<feOffset in="dsShadow1" dx="-0.00" dy="1.00" result="dsOffset1"/>
<feComposite in="dsOffset1" in2="SourceAlpha" operator="out" result="dropShadow1"/>
<feBlend in="dropShadow1" in2="SourceGraphic" mode="normal" result="sourceGraphic"/>
</filter>
<path fillRule="evenodd" d="M 56.04 49.85C 55.51 50.58 54.95 51.27 54.36 51.95 53.74 52.84 52.3 54.91 49.71 58.76 48.4 60.7 47.88 62.62 47.18 65.54 47.18 65.54 37.99 65.54 37.99 65.54 38.07 61.85 38.81 40.9 45.8 34.46 45.8 34.46 40.5 38.14 34.63 44.07 34.63 44.07 31.28 41.16 31.28 41.16 31.28 41.16 31.28 40.68 31.28 40.68 31.28 40.68 31 40.92 31 40.92 31 40.92 30.72 40.68 30.72 40.68 30.72 40.68 30.72 41.16 30.72 41.16 30.72 41.16 27.37 44.07 27.37 44.07 21.5 38.14 16.2 34.46 16.2 34.46 23.19 40.9 23.93 61.85 24.01 65.54 24.01 65.54 14.82 65.54 14.82 65.54 14.12 62.62 13.6 60.7 12.29 58.76 9.72 54.95 8.29 52.87 7.65 51.97 2.89 46.46-0 39.25-0 31.36-0 14.04 13.88-0 31-0 48.12-0 62 14.04 62 31.36 62 38.27 59.79 44.67 56.04 49.85ZM 37.98 44.63C 37.98 44.63 35.95 52.06 35.22 65.54 35.22 65.54 26.78 65.54 26.78 65.54 26.05 52.06 24.02 44.63 24.02 44.63 24.02 44.63 27.37 48.02 27.37 48.02 27.37 48.02 31 44.87 31 44.87 31 44.87 34.63 48.02 34.63 48.02 34.63 48.02 37.98 44.63 37.98 44.63ZM 46.36 68.93C 46.36 68.93 45.79 74.58 45.79 74.58 45.79 74.58 16.21 74.58 16.21 74.58 16.21 74.58 15.64 68.93 15.64 68.93 15.59 68.73 15.55 68.55 15.5 68.36 15.5 68.36 46.5 68.36 46.5 68.36 46.45 68.55 46.41 68.73 46.36 68.93ZM 44.93 83.05C 44.93 83.05 17.07 83.05 17.07 83.05 17.07 83.05 16.44 76.84 16.44 76.84 16.44 76.84 45.56 76.84 45.56 76.84 45.56 76.84 44.93 83.05 44.93 83.05ZM 44.13 90.96C 44.13 90.96 17.87 90.96 17.87 90.96 17.87 90.96 17.36 85.88 17.36 85.88 17.36 85.88 44.64 85.88 44.64 85.88 44.64 85.88 44.13 90.96 44.13 90.96ZM 31.28 99.72C 31.28 99.72 31.28 100 31.28 100 31.18 99.95 31.09 99.91 31 99.86 30.91 99.91 30.82 99.95 30.72 100 30.72 100 30.72 99.72 30.72 99.72 26.58 97.64 23.37 95.45 21.2 93.79 21.2 93.79 40.8 93.79 40.8 93.79 38.63 95.45 35.42 97.64 31.28 99.72Z" fill="rgb(255,255,255)" filter="url(#filter0)"/></svg>
