<?xml version="1.0" encoding="utf-8"?>
<svg xmlns="http://www.w3.org/2000/svg"
	xmlns:xlink="http://www.w3.org/1999/xlink"
	width="56px" height="101px" viewBox="0 0 56 101">
<filter filterUnits="objectBoundingBox" x="0.00" y="0.00" width="100.00" height="101.00" id="filter0">
<feGaussianBlur in="SourceAlpha" stdDeviation="0.00" result="dsBlurOut1"/>
<feFlood flood-color="rgb(101,101,101)" result="dsFloodOut1"/>
<feComposite in="dsFloodOut1" in2="dsBlurOut1" operator="in" result="dsShadow1"/>
<feOffset in="dsShadow1" dx="-0.00" dy="1.00" result="dsOffset1"/>
<feComposite in="dsOffset1" in2="SourceAlpha" operator="out" result="dropShadow1"/>
<feBlend in="dropShadow1" in2="SourceGraphic" mode="normal" result="sourceGraphic"/>
</filter>
<path fillRule="evenodd" d="M 55.97 30.72C 55.97 30.8 55.97 30.88 55.96 30.96 55.95 31.34 55.93 31.74 55.91 32.15 55.91 32.15 55.91 32.15 55.9 32.15 55.88 32.57 55.85 33 55.81 33.44 55.8 33.49 55.8 33.54 55.79 33.59 55.05 41.96 52.25 53.82 47.27 63.36 46.24 65.34 45.05 67.21 43.76 68.94 43.51 72.28 39.85 77.32 37.42 79.53 37.42 79.53 18.87 79.53 18.87 79.53 16.47 77.36 12.9 72.45 12.54 69.11 11.33 67.52 10.21 65.79 9.23 63.97 4.01 54.36 1.01 42.21 0.22 33.65 0.21 33.57 0.2 33.48 0.19 33.39 0.12 32.55 0.07 31.74 0.04 30.98 0.03 30.89 0.03 30.8 0.03 30.71 0.01 30.33 0.01 29.97 0 29.61 0 29.61 0 29.61 0 29.61 0 29.61 0 29.61 0 29.61 0 29.61 56 29.61 56 29.61 56 29.61 56 29.61 56 29.61 56 29.61 56 29.61 56 29.61 55.99 29.97 55.99 30.34 55.97 30.72ZM 4.97 34.97C 5.74 43.43 9.12 54.85 13.08 63.97 13.97 66.01 14.99 67.93 16.1 69.68 16.56 69.79 17.02 69.9 17.5 70 16.43 68.16 15.45 66.13 14.61 63.97 11.04 54.85 7.91 43.43 7.21 34.97 7.21 34.97 4.97 34.97 4.97 34.97ZM 10.46 34.97C 11.08 43.43 12.97 54.85 16.13 63.97 16.92 66.24 17.84 68.36 18.84 70.26 19.17 70.32 19.52 70.38 19.86 70.43 18.93 68.49 18.08 66.31 17.35 63.97 14.51 54.85 12.8 43.43 12.25 34.97 12.25 34.97 10.46 34.97 10.46 34.97ZM 15.79 34.97C 16.22 43.43 17.54 54.85 19.76 63.97 20.35 66.42 21.04 68.69 21.81 70.7 22.18 70.75 22.56 70.79 22.94 70.83 22.31 68.78 21.72 66.47 21.17 63.97 19.19 54.85 18 43.43 17.61 34.97 17.61 34.97 15.79 34.97 15.79 34.97ZM 24.6 63.97C 23.4 54.85 22.87 43.43 22.71 34.97 22.71 34.97 20.85 34.97 20.85 34.97 21.11 43.43 21.9 54.85 23.23 63.97 23.6 66.52 24.05 68.88 24.53 70.95 24.88 70.98 25.23 71 25.59 71.01 25.26 68.93 24.93 66.54 24.6 63.97ZM 26.93 34.97C 26.93 34.97 28.37 71.07 28.37 71.07 28.52 71.07 28.66 71.07 28.81 71.07 28.81 71.07 29.22 34.97 29.22 34.97 29.22 34.97 26.93 34.97 26.93 34.97ZM 33.86 34.97C 33.71 43.24 33.23 54.33 32.09 63.36 31.74 66.15 31.39 68.75 31.04 71 31.4 70.98 31.75 70.95 32.1 70.93 32.61 68.7 33.08 66.12 33.47 63.36 34.74 54.33 35.48 43.24 35.73 34.97 35.73 34.97 33.86 34.97 33.86 34.97ZM 38.68 34.97C 38.31 43.24 37.2 54.33 35.31 63.36 34.74 66.08 34.11 68.61 33.43 70.82 33.81 70.78 34.19 70.74 34.56 70.69 35.38 68.51 36.13 66.03 36.75 63.36 38.86 54.33 40.09 43.24 40.5 34.97 40.5 34.97 38.68 34.97 38.68 34.97ZM 44.04 34.97C 43.52 43.24 41.93 54.33 39.22 63.36 38.45 65.92 37.54 68.3 36.54 70.41 36.89 70.36 37.23 70.3 37.58 70.23 38.65 68.17 39.64 65.84 40.47 63.36 43.48 54.33 45.25 43.24 45.83 34.97 45.83 34.97 44.04 34.97 44.04 34.97ZM 49.08 34.97C 48.42 43.24 45.43 54.33 42.03 63.36 41.14 65.73 40.08 67.97 38.93 69.96 39.41 69.86 39.89 69.75 40.36 69.64 41.56 67.72 42.66 65.6 43.6 63.36 47.38 54.33 50.59 43.24 51.32 34.97 51.32 34.97 49.08 34.97 49.08 34.97ZM 28-0C 42.95-0 55.07 11.98 55.14 26.79 55.14 26.79 0.86 26.79 0.86 26.79 0.93 11.98 13.05-0 28-0ZM 37.41 81.68C 37.41 81.68 37.07 85.01 37.07 85.01 37.07 85.01 19.5 85.01 19.5 85.01 19.5 85.01 19.16 81.68 19.16 81.68 19.13 81.57 19.1 81.46 19.08 81.35 19.08 81.35 37.49 81.35 37.49 81.35 37.47 81.46 37.44 81.57 37.41 81.68ZM 36.56 90.01C 36.56 90.01 20.01 90.01 20.01 90.01 20.01 90.01 19.63 86.35 19.63 86.35 19.63 86.35 36.93 86.35 36.93 86.35 36.93 86.35 36.56 90.01 36.56 90.01ZM 36.08 94.67C 36.08 94.67 20.49 94.67 20.49 94.67 20.49 94.67 20.18 91.67 20.18 91.67 20.18 91.67 36.39 91.67 36.39 91.67 36.39 91.67 36.08 94.67 36.08 94.67ZM 28.45 99.83C 28.45 99.83 28.45 100 28.45 100 28.39 99.97 28.34 99.94 28.28 99.92 28.23 99.94 28.18 99.97 28.12 100 28.12 100 28.12 99.83 28.12 99.83 25.66 98.61 23.75 97.32 22.46 96.34 22.46 96.34 34.11 96.34 34.11 96.34 32.82 97.32 30.91 98.61 28.45 99.83Z" fill="rgb(255,255,255)" filter="url(#filter0)"/></svg>
