<?xml version="1.0" encoding="utf-8"?>
<svg xmlns="http://www.w3.org/2000/svg"
	xmlns:xlink="http://www.w3.org/1999/xlink"
	width="37px" height="102px" viewBox="0 0 37 102">
<filter filterUnits="objectBoundingBox" x="0.00" y="0.00" width="100.00" height="100.99" id="filter0">
<feGaussianBlur in="SourceAlpha" stdDeviation="0.00" result="dsBlurOut1"/>
<feFlood flood-color="rgb(101,101,101)" result="dsFloodOut1"/>
<feComposite in="dsFloodOut1" in2="dsBlurOut1" operator="in" result="dsShadow1"/>
<feOffset in="dsShadow1" dx="-0.00" dy="1.00" result="dsOffset1"/>
<feComposite in="dsOffset1" in2="SourceAlpha" operator="out" result="dropShadow1"/>
<feBlend in="dropShadow1" in2="SourceGraphic" mode="normal" result="sourceGraphic"/>
</filter>
<path fillRule="evenodd" d="M 34.65 29.28C 34.65 29.28 4.29 37.52 4.29 37.52 2.62 37.97 0.9 36.97 0.45 35.27-0 33.57 0.99 31.82 2.67 31.37 2.67 31.37 33.02 23.13 33.02 23.13 34.7 22.67 36.42 23.68 36.87 25.38 37.32 27.08 36.32 28.82 34.65 29.28ZM 34.65 20.36C 34.65 20.36 4.29 28.6 4.29 28.6 2.62 29.06 0.9 28.05 0.45 26.35-0 24.66 0.99 22.91 2.67 22.45 2.67 22.45 33.02 14.21 33.02 14.21 34.7 13.76 36.42 14.77 36.87 16.47 37.32 18.16 36.32 19.91 34.65 20.36ZM 34.65 11.45C 34.65 11.45 4.29 19.69 4.29 19.69 2.62 20.15 0.9 19.14 0.45 17.44-0 15.74 0.99 14 2.67 13.54 2.67 13.54 33.02 5.3 33.02 5.3 34.7 4.85 36.42 5.85 36.87 7.55 37.32 9.25 36.32 11 34.65 11.45ZM 16.11 6.28C 16.11 6.28 3.97 9.58 3.97 9.58 2.3 10.03 0.57 9.03 0.12 7.33-0.32 5.63 0.67 3.88 2.35 3.43 2.35 3.43 14.49 0.13 14.49 0.13 16.16-0.32 17.89 0.68 18.34 2.38 18.79 4.08 17.79 5.83 16.11 6.28ZM 2.67 40.28C 2.67 40.28 33.02 32.04 33.02 32.04 34.7 31.59 36.42 32.6 36.87 34.29 37.32 35.99 36.32 37.74 34.65 38.19 34.65 38.19 33.3 38.56 33.3 38.56 33.3 38.56 29.37 49.5 29.37 49.5 31.95 50.72 33.74 53.36 33.74 56.43 33.74 56.43 33.74 62.45 33.74 62.45 30.89 65.95 28.56 69.91 26.86 74.19 26.64 74.21 26.42 74.26 26.2 74.26 26.2 74.26 8.6 74.26 8.6 74.26 8.38 74.26 8.16 74.21 7.94 74.19 6.24 69.91 3.92 65.95 1.06 62.45 1.06 62.45 1.06 56.43 1.06 56.43 1.06 53.23 3.01 50.49 5.76 49.35 5.76 49.35 5.24 46.18 5.24 46.18 5.24 46.18 4.29 46.43 4.29 46.43 2.62 46.89 0.9 45.88 0.45 44.18-0 42.48 0.99 40.74 2.67 40.28ZM 11.65 48.79C 11.65 48.79 23.34 48.79 23.34 48.79 23.34 48.79 26.33 40.45 26.33 40.45 26.33 40.45 10.51 44.74 10.51 44.74 10.51 44.74 11.65 48.79 11.65 48.79ZM 11.74 76.8C 11.74 76.8 24.31 76.8 24.31 76.8 25.35 76.8 26.2 77.66 26.2 78.71 26.2 79.77 25.35 80.62 24.31 80.62 24.31 80.62 11.74 80.62 11.74 80.62 10.7 80.62 9.86 79.77 9.86 78.71 9.86 77.66 10.7 76.8 11.74 76.8ZM 11.74 83.17C 11.74 83.17 24.31 83.17 24.31 83.17 25.35 83.17 26.2 84.03 26.2 85.08 26.2 86.14 25.35 86.99 24.31 86.99 24.31 86.99 11.74 86.99 11.74 86.99 10.7 86.99 9.86 86.14 9.86 85.08 9.86 84.03 10.7 83.17 11.74 83.17ZM 11.74 89.54C 11.74 89.54 24.31 89.54 24.31 89.54 25.35 89.54 26.2 90.39 26.2 91.45 26.2 92.5 25.35 93.36 24.31 93.36 24.31 93.36 11.74 93.36 11.74 93.36 10.7 93.36 9.86 92.5 9.86 91.45 9.86 90.39 10.7 89.54 11.74 89.54ZM 18.03 101C 14.9 101 12.37 98.72 12.37 95.91 12.37 95.91 23.68 95.91 23.68 95.91 23.68 98.72 21.15 101 18.03 101Z" fill="rgb(255,255,255)" filter="url(#filter0)"/></svg>
