<?xml version="1.0" encoding="utf-8"?>
<svg xmlns="http://www.w3.org/2000/svg"
	xmlns:xlink="http://www.w3.org/1999/xlink"
	width="19px" height="15px">
<path fill="rgb(242,255,225)" fill-rule="evenodd" d="M 17.69 0.01C 17.69 0.01 1.28 0.01 1.28 0.01 0.57 0.01-0.01 0.58-0.01 1.28-0.01 1.28-0.01 13.71-0.01 13.71-0.01 14.41 0.57 14.99 1.28 14.99 1.28 14.99 17.69 14.99 17.69 14.99 18.41 14.99 18.99 14.41 18.99 13.71 18.99 13.71 18.99 1.28 18.99 1.28 18.99 0.58 18.41 0.01 17.69 0.01ZM 17.69 13.1C 17.69 13.1 13.28 8.75 13.28 8.75 13.02 8.5 12.61 8.5 12.36 8.75 12.11 9 12.11 9.4 12.36 9.65 12.36 9.65 16.49 13.71 16.49 13.71 16.49 13.71 2.57 13.71 2.57 13.71 2.57 13.71 6.7 9.65 6.7 9.65 6.95 9.4 6.95 9 6.7 8.75 6.45 8.5 6.04 8.5 5.78 8.75 5.78 8.75 1.28 13.18 1.28 13.18 1.28 13.18 1.28 2.22 1.28 2.22 1.28 2.22 8.33 9.16 8.33 9.16 8.7 9.52 9.19 9.71 9.71 9.71 10.23 9.71 10.28 9.52 10.65 9.16 10.65 9.16 17.69 2.22 17.69 2.22 17.69 2.22 17.69 13.1 17.69 13.1ZM 2.17 1.28C 2.17 1.28 16.81 1.28 16.81 1.28 16.81 1.28 9.73 8.25 9.73 8.25 9.49 8.49 9.49 8.49 9.25 8.25 9.25 8.25 2.17 1.28 2.17 1.28Z"/>
</svg>
