<?xml version="1.0" encoding="utf-8"?>
<svg xmlns="http://www.w3.org/2000/svg"
	xmlns:xlink="http://www.w3.org/1999/xlink"
	width="16px" height="18px">
<path fill="rgb(255,0,0)" fill-rule="evenodd" d="M 14.99 13.7C 14.99 13.7 14.55 13.7 14.55 13.7 14.55 13.7 14.55 17.29 14.55 17.29 14.55 17.68 14.24 18 13.85 18 13.85 18 2.15 18 2.15 18 1.76 18 1.44 17.68 1.44 17.29 1.44 17.29 1.44 13.7 1.44 13.7 1.44 13.7 1.01 13.7 1.01 13.7 0.45 13.7-0 13.25-0 12.69-0 12.69-0 7.45-0 7.45-0 6.89 0.45 6.44 1.01 6.44 1.01 6.44 1.44 6.44 1.44 6.44 1.44 6.44 1.44 0.71 1.44 0.71 1.44 0.32 1.76-0 2.15-0 2.15-0 10.72-0 10.72-0 10.74-0 10.77 0 10.8 0.01 10.8 0.01 10.81 0.01 10.82 0.02 10.84 0.02 10.86 0.03 10.89 0.05 10.89 0.05 10.9 0.05 10.91 0.06 10.94 0.08 10.96 0.1 10.98 0.12 10.98 0.12 10.98 0.12 10.98 0.12 10.98 0.12 14.47 4.09 14.47 4.09 14.52 4.15 14.55 4.23 14.55 4.31 14.55 4.33 14.55 4.34 14.55 4.35 14.55 4.35 14.55 6.44 14.55 6.44 14.55 6.44 14.99 6.44 14.99 6.44 15.55 6.44 16 6.89 16 7.45 16 7.45 16 12.69 16 12.69 16 13.25 15.55 13.7 14.99 13.7ZM 2.15 17.1C 2.15 17.1 13.85 17.1 13.85 17.1 13.85 17.1 13.85 13.7 13.85 13.7 13.85 13.7 2.15 13.7 2.15 13.7 2.15 13.7 2.15 17.1 2.15 17.1ZM 10.85 10.1C 10.85 9.17 10.51 8.52 9.96 8.11 9.45 7.73 8.8 7.55 7.79 7.55 7.19 7.55 6.61 7.59 6.17 7.66 6.17 7.66 6.17 12.84 6.17 12.84 6.47 12.87 6.91 12.91 7.53 12.91 8.57 12.91 9.42 12.69 9.97 12.23 10.48 11.8 10.85 11.11 10.85 10.1ZM 1.61 7.66C 1.61 7.66 1.61 12.86 1.61 12.86 1.61 12.86 1.61 12.86 1.61 12.86 1.61 12.86 2.8 12.86 2.8 12.86 2.8 12.86 2.8 10.97 2.8 10.97 2.91 10.99 3.05 11 3.21 11 3.91 11 4.52 10.83 4.92 10.44 5.24 10.15 5.41 9.71 5.41 9.19 5.41 8.68 5.18 8.24 4.85 7.97 4.49 7.69 3.97 7.55 3.23 7.55 2.5 7.55 1.98 7.6 1.61 7.66ZM 13.85 4.67C 13.85 4.67 10.72 4.67 10.72 4.67 10.52 4.67 10.36 4.51 10.36 4.32 10.36 4.32 10.36 0.71 10.36 0.71 10.36 0.71 2.15 0.71 2.15 0.71 2.15 0.71 2.15 6.44 2.15 6.44 2.15 6.44 13.85 6.44 13.85 6.44 13.85 6.44 13.85 4.67 13.85 4.67ZM 14.87 7.59C 14.87 7.59 11.64 7.59 11.64 7.59 11.64 7.59 11.64 12.86 11.64 12.86 11.64 12.86 12.84 12.86 12.84 12.86 12.84 12.86 12.84 10.74 12.84 10.74 12.84 10.74 14.74 10.74 14.74 10.74 14.74 10.74 14.74 9.77 14.74 9.77 14.74 9.77 12.84 9.77 12.84 9.77 12.84 9.77 12.84 8.57 12.84 8.57 12.84 8.57 14.87 8.57 14.87 8.57 14.87 8.57 14.87 7.59 14.87 7.59ZM 4.23 9.22C 4.23 9.76 3.83 10.08 3.2 10.08 3.03 10.08 2.9 10.08 2.8 10.05 2.8 10.05 2.8 8.5 2.8 8.5 2.88 8.47 3.05 8.45 3.29 8.45 3.89 8.45 4.23 8.74 4.23 9.22ZM 7.79 11.98C 7.64 11.98 7.48 11.98 7.38 11.96 7.38 11.96 7.38 8.51 7.38 8.51 7.48 8.49 7.65 8.46 7.92 8.46 8.95 8.46 9.59 9.04 9.58 10.14 9.58 11.4 8.87 11.99 7.79 11.98Z"/>
</svg>
