<?xml version="1.0" encoding="utf-8"?>
<svg xmlns="http://www.w3.org/2000/svg"
	xmlns:xlink="http://www.w3.org/1999/xlink"
	width="75px" height="39px" viewBox="0 0 75 39">
<path fillRule="evenodd" d="M 74.31 29.87C 74.31 29.87 70.94 30.77 70.94 30.77 70.79 30.17 70.62 29.57 70.44 28.99 70.44 28.99 73.83 28.08 73.83 28.08 74.32 27.94 74.83 28.24 74.97 28.73 75.1 29.23 74.81 29.74 74.31 29.87ZM 70.75 20.65C 70.75 20.65 67.57 22.48 67.57 22.48 67.26 21.95 66.94 21.42 66.6 20.9 66.6 20.9 69.82 19.04 69.82 19.04 70.26 18.79 70.83 18.94 71.09 19.38 71.35 19.83 71.19 20.4 70.75 20.65ZM 57.95 19.63C 57.95 19.63 61.45 16.14 61.45 16.14 63.06 17.74 64.5 19.5 65.74 21.4 65.74 21.4 61.42 23.89 61.42 23.89 60.41 22.36 59.24 20.94 57.95 19.63ZM 62.15 15.44C 61.71 15 61.26 14.58 60.8 14.16 60.8 14.16 63.61 11.35 63.61 11.35 63.97 10.99 64.56 10.99 64.92 11.35 65.29 11.72 65.29 12.31 64.92 12.67 64.92 12.67 62.15 15.44 62.15 15.44ZM 60.12 14.89C 60.57 15.28 61 15.7 61.43 16.12 61 15.7 60.57 15.28 60.12 14.89ZM 52.19 15.17C 52.19 15.17 54.65 10.92 54.65 10.92 56.6 12.05 58.43 13.38 60.1 14.86 60.1 14.86 56.6 18.36 56.6 18.36 55.24 17.16 53.77 16.09 52.19 15.17ZM 55.14 10.06C 54.61 9.75 54.06 9.46 53.51 9.17 53.51 9.17 55.61 5.53 55.61 5.53 55.87 5.09 56.44 4.94 56.88 5.19 57.33 5.45 57.48 6.02 57.22 6.46 57.22 6.46 55.14 10.06 55.14 10.06ZM 53.44 10.25C 53.3 10.17 53.16 10.1 53.02 10.03 53.02 10.03 53.02 10.03 53.02 10.03 53.16 10.1 53.3 10.17 53.44 10.25ZM 53.78 10.43C 54.07 10.58 54.36 10.74 54.64 10.91 54.36 10.74 54.07 10.58 53.78 10.43ZM 53.44 10.25C 53.56 10.31 53.67 10.37 53.78 10.43 53.67 10.37 53.56 10.31 53.44 10.25ZM 45.54 12.31C 45.54 12.31 46.8 7.59 46.8 7.59 48.97 8.21 51.05 9.03 53.02 10.03 53.02 10.03 50.56 14.28 50.56 14.28 48.97 13.48 47.29 12.82 45.54 12.31ZM 47.06 6.65C 46.46 6.48 45.86 6.33 45.25 6.19 45.25 6.19 46.39 1.98 46.39 1.98 46.52 1.48 47.03 1.19 47.52 1.32 48.02 1.45 48.31 1.96 48.18 2.46 48.18 2.46 47.06 6.65 47.06 6.65ZM 45.87 7.35C 45.58 7.27 45.29 7.21 45 7.14 45 7.14 45 7.14 45 7.14 45.29 7.2 45.58 7.27 45.87 7.35ZM 38.41 11.21C 38.41 11.21 38.41 6.33 38.41 6.33 40.67 6.39 42.87 6.67 45 7.14 45 7.14 43.73 11.86 43.73 11.86 42.01 11.49 40.23 11.26 38.41 11.21ZM 36.55 5.35C 36.55 5.35 36.55 0.93 36.55 0.93 36.55 0.42 36.97-0 37.48-0 37.99-0 38.41 0.42 38.41 0.93 38.41 0.93 38.41 5.35 38.41 5.35 38.1 5.34 37.79 5.34 37.48 5.34 37.17 5.34 36.86 5.34 36.55 5.35ZM 36.55 11.21C 34.73 11.27 32.95 11.48 31.24 11.86 31.24 11.86 29.97 7.14 29.97 7.14 32.09 6.66 34.29 6.39 36.55 6.33 36.55 6.33 36.55 11.21 36.55 11.21ZM 26.79 2.46C 26.66 1.96 26.95 1.45 27.45 1.32 27.94 1.19 28.45 1.48 28.59 1.98 28.59 1.98 29.72 6.19 29.72 6.19 29.11 6.33 28.51 6.48 27.91 6.65 27.91 6.65 26.79 2.46 26.79 2.46ZM 21.96 10.02C 21.81 10.1 21.66 10.18 21.5 10.26 21.66 10.18 21.81 10.09 21.96 10.01 21.96 10.01 21.96 10.02 21.96 10.02ZM 29.43 12.32C 27.69 12.82 26.01 13.47 24.42 14.27 24.42 14.27 21.96 10.02 21.96 10.02 23.92 9.02 26 8.2 28.17 7.59 28.17 7.59 29.43 12.32 29.43 12.32ZM 21.22 10.4C 20.93 10.56 20.64 10.72 20.36 10.89 20.64 10.72 20.93 10.56 21.22 10.4ZM 21.5 10.26C 21.41 10.31 21.31 10.35 21.22 10.4 21.31 10.35 21.41 10.31 21.5 10.26ZM 17.76 6.46C 17.5 6.01 17.65 5.44 18.1 5.19 18.54 4.93 19.11 5.08 19.37 5.53 19.37 5.53 21.47 9.16 21.47 9.16 20.92 9.45 20.37 9.74 19.84 10.05 19.84 10.05 17.76 6.46 17.76 6.46ZM 22.79 15.16C 21.22 16.08 19.74 17.15 18.39 18.34 18.39 18.34 14.89 14.84 14.89 14.84 16.55 13.36 18.38 12.04 20.33 10.9 20.33 10.9 22.79 15.16 22.79 15.16ZM 12.83 15.42C 12.83 15.42 10.07 12.65 10.07 12.65 9.71 12.29 9.71 11.7 10.07 11.34 10.43 10.98 11.02 10.98 11.38 11.34 11.38 11.34 14.19 14.14 14.19 14.14 13.72 14.55 13.27 14.98 12.83 15.42ZM 17.04 19.61C 15.74 20.91 14.58 22.33 13.56 23.86 13.56 23.86 9.25 21.37 9.25 21.37 10.49 19.47 11.93 17.71 13.53 16.11 13.53 16.11 17.04 19.61 17.04 19.61ZM 4.25 20.63C 3.8 20.37 3.65 19.8 3.91 19.36 4.17 18.92 4.73 18.76 5.18 19.02 5.18 19.02 8.38 20.87 8.38 20.87 8.04 21.38 7.72 21.91 7.41 22.45 7.41 22.45 4.25 20.63 4.25 20.63ZM 4.03 30.73C 4.03 30.73 0.69 29.84 0.69 29.84 0.2 29.7-0.1 29.19 0.04 28.7 0.17 28.2 0.68 27.91 1.18 28.04 1.18 28.04 4.54 28.94 4.54 28.94 4.35 29.53 4.18 30.13 4.03 30.73ZM 12.59 25.44C 11.68 27.04 10.93 28.73 10.35 30.5 10.35 30.5 5.51 29.2 5.51 29.2 6.2 27.01 7.13 24.92 8.27 22.95 8.27 22.95 12.59 25.44 12.59 25.44ZM 9.52 33.69C 9.52 33.69 4.59 32.79 4.59 32.79 4.71 32.18 4.84 31.58 5 30.99 5 30.99 9.84 32.28 9.84 32.28 9.72 32.75 9.62 33.22 9.52 33.69ZM 62.39 25.47C 62.39 25.47 66.71 22.98 66.71 22.98 67.84 24.95 68.77 27.05 69.47 29.24 69.47 29.24 64.63 30.54 64.63 30.54 64.05 28.77 63.3 27.07 62.39 25.47ZM 70.45 33.24C 70.45 33.24 65.51 34.08 65.51 34.08 65.4 33.49 65.28 32.9 65.13 32.33 65.13 32.33 69.98 31.03 69.98 31.03 70.16 31.76 70.32 32.49 70.45 33.24ZM 37.48 34.73C 38.16 34.73 38.81 34.9 39.37 35.2 39.37 35.2 49.53 20.7 49.53 20.7 49.53 20.7 48.87 20.24 48.87 20.24 48.87 20.24 52.3 17.3 52.3 17.3 52.3 17.3 50.7 21.52 50.7 21.52 50.7 21.52 50.04 21.06 50.04 21.06 50.04 21.06 39.9 35.53 39.9 35.53 40.82 36.2 41.44 37.25 41.55 38.44 41.55 38.44 70.57 38.44 70.57 38.44 70.57 38.44 70.57 39 70.57 39 70.57 39 4.39 39 4.39 39 4.39 39 4.39 38.44 4.39 38.44 4.39 38.44 33.41 38.44 33.41 38.44 33.6 36.36 35.35 34.73 37.48 34.73Z" fill="rgb(127,127,127)"/></svg>
