<?xml version="1.0" encoding="utf-8"?>
<svg xmlns="http://www.w3.org/2000/svg"
	xmlns:xlink="http://www.w3.org/1999/xlink"
	width="40px" height="40px">
<circle fill="rgb(121,175,33)" cx="20.00" cy="20.00" r="20.00"/>
<path fill="rgb(255,255,255)" fill-rule="evenodd" d="M 28.88 29C 28.88 29 12.13 29 12.13 29 10.96 29 10 28.12 10 27.03 10 27.03 10 15.69 10 15.69 10 14.61 10.96 13.72 12.13 13.72 12.13 13.72 14.51 13.72 14.51 13.72 14.51 13.72 14.51 15.11 14.51 15.11 14.51 15.11 12.13 15.11 12.13 15.11 11.79 15.11 11.5 15.38 11.5 15.69 11.5 15.69 11.5 27.03 11.5 27.03 11.5 27.35 11.79 27.61 12.13 27.61 12.13 27.61 28.88 27.61 28.88 27.61 29.22 27.61 29.51 27.35 29.51 27.03 29.51 27.03 29.51 15.69 29.51 15.69 29.51 15.38 29.22 15.11 28.88 15.11 28.88 15.11 26.5 15.11 26.5 15.11 26.5 15.11 26.5 13.72 26.5 13.72 26.5 13.72 28.88 13.72 28.88 13.72 30.05 13.72 31.01 14.61 31.01 15.69 31.01 15.69 31.01 27.03 31.01 27.03 31.01 28.12 30.05 29 28.88 29ZM 22.99 15.11C 22.99 15.11 18.02 15.11 18.02 15.11 18.02 15.11 18.02 13.72 18.02 13.72 18.02 13.72 22.99 13.72 22.99 13.72 22.99 13.72 22.99 15.11 22.99 15.11ZM 24.67 20.17C 23.8 20.17 23.09 19.51 23.09 18.7 23.09 18.11 23.47 17.6 24.01 17.37 24.01 17.37 24.01 12.41 24.01 12.41 24.01 10.74 22.47 9.39 20.67 9.39 18.88 9.39 17 10.74 17 12.41 17 12.41 17 17.41 17 17.41 17.5 17.66 17.84 18.14 17.84 18.7 17.84 19.51 17.13 20.17 16.26 20.17 15.38 20.17 14.67 19.51 14.67 18.7 14.67 18.15 15.01 17.67 15.5 17.42 15.5 17.42 15.5 12.41 15.5 12.41 15.5 9.98 18.05 8 20.67 8 23.29 8 25.51 9.98 25.51 12.41 25.51 12.41 25.51 17.46 25.51 17.46 25.95 17.72 26.25 18.18 26.25 18.7 26.25 19.51 25.54 20.17 24.67 20.17Z"/>
</svg>
