<?xml version="1.0" encoding="utf-8"?>
<svg xmlns="http://www.w3.org/2000/svg"
	xmlns:xlink="http://www.w3.org/1999/xlink"
	width="76px" height="76px" viewBox="0 0 76 76">
<path fillRule="evenodd" d="M 74.69 39.31C 74.69 39.31 57 39.31 57 39.31 56.28 39.31 55.69 38.72 55.69 38 55.69 37.28 56.28 36.69 57 36.69 57 36.69 74.69 36.69 74.69 36.69 75.41 36.69 76 37.28 76 38 76 38.72 75.41 39.31 74.69 39.31ZM 70.43 20.79C 70.43 20.79 55.11 29.63 55.11 29.63 54.48 30 53.68 29.78 53.32 29.15 52.96 28.53 53.17 27.73 53.8 27.37 53.8 27.37 69.12 18.52 69.12 18.52 69.75 18.16 70.55 18.37 70.91 19 71.27 19.63 71.06 20.43 70.43 20.79ZM 48.63 22.2C 48.27 22.83 47.47 23.04 46.84 22.68 46.22 22.32 46 21.52 46.37 20.89 46.37 20.89 55.21 5.57 55.21 5.57 55.57 4.94 56.37 4.73 57 5.09 57.63 5.45 57.84 6.25 57.48 6.88 57.48 6.88 48.63 22.2 48.63 22.2ZM 44.18 19.99C 44 20.69 43.28 21.1 42.58 20.91 41.88 20.73 41.46 20.01 41.65 19.31 41.65 19.31 42.84 14.88 42.84 14.88 43.03 14.18 43.74 13.76 44.44 13.95 45.14 14.14 45.56 14.86 45.37 15.56 45.37 15.56 44.18 19.99 44.18 19.99ZM 38 20.31C 37.28 20.31 36.69 19.72 36.69 19 36.69 19 36.69 1.31 36.69 1.31 36.69 0.59 37.28-0 38-0 38.72-0 39.31 0.59 39.31 1.31 39.31 1.31 39.31 19 39.31 19 39.31 19.72 38.72 20.31 38 20.31ZM 33.42 20.91C 32.72 21.1 32 20.69 31.82 19.99 31.82 19.99 30.63 15.56 30.63 15.56 30.44 14.86 30.86 14.14 31.56 13.95 32.26 13.76 32.97 14.18 33.16 14.88 33.16 14.88 34.35 19.31 34.35 19.31 34.54 20.01 34.12 20.73 33.42 20.91ZM 29.16 22.68C 28.53 23.04 27.73 22.83 27.37 22.2 27.37 22.2 18.52 6.88 18.52 6.88 18.16 6.25 18.37 5.45 19 5.09 19.63 4.73 20.43 4.94 20.79 5.57 20.79 5.57 29.63 20.89 29.63 20.89 30 21.52 29.78 22.32 29.16 22.68ZM 22.68 29.15C 22.32 29.78 21.52 30 20.89 29.63 20.89 29.63 5.57 20.79 5.57 20.79 4.94 20.43 4.73 19.63 5.09 19 5.45 18.37 6.25 18.16 6.88 18.52 6.88 18.52 22.2 27.37 22.2 27.37 22.83 27.73 23.04 28.53 22.68 29.15ZM 20.31 38C 20.31 38.72 19.72 39.31 19 39.31 19 39.31 1.31 39.31 1.31 39.31 0.59 39.31-0 38.72-0 38-0 37.28 0.59 36.69 1.31 36.69 1.31 36.69 19 36.69 19 36.69 19.72 36.69 20.31 37.28 20.31 38ZM 19.31 34.35C 19.31 34.35 14.88 33.16 14.88 33.16 14.18 32.97 13.76 32.26 13.95 31.56 14.14 30.86 14.86 30.44 15.56 30.63 15.56 30.63 19.99 31.82 19.99 31.82 20.69 32 21.1 32.72 20.91 33.42 20.73 34.12 20.01 34.54 19.31 34.35ZM 19.99 44.18C 19.99 44.18 15.56 45.37 15.56 45.37 14.86 45.56 14.14 45.14 13.95 44.44 13.76 43.74 14.18 43.03 14.88 42.84 14.88 42.84 19.31 41.65 19.31 41.65 20.01 41.46 20.73 41.88 20.91 42.58 21.1 43.28 20.69 44 19.99 44.18ZM 5.57 55.21C 5.57 55.21 20.89 46.37 20.89 46.37 21.52 46 22.32 46.22 22.68 46.84 23.04 47.47 22.83 48.27 22.2 48.63 22.2 48.63 6.88 57.48 6.88 57.48 6.25 57.84 5.45 57.63 5.09 57 4.73 56.37 4.94 55.57 5.57 55.21ZM 27.37 53.8C 27.73 53.17 28.53 52.96 29.16 53.32 29.78 53.68 30 54.48 29.63 55.11 29.63 55.11 20.79 70.43 20.79 70.43 20.43 71.06 19.63 71.27 19 70.91 18.37 70.55 18.16 69.75 18.52 69.12 18.52 69.12 27.37 53.8 27.37 53.8ZM 31.82 56.01C 32 55.31 32.72 54.9 33.42 55.09 34.12 55.27 34.54 55.99 34.35 56.69 34.35 56.69 33.16 61.12 33.16 61.12 32.97 61.82 32.26 62.24 31.56 62.05 30.86 61.86 30.44 61.14 30.63 60.44 30.63 60.44 31.82 56.01 31.82 56.01ZM 38 55.69C 38.72 55.69 39.31 56.28 39.31 57 39.31 57 39.31 74.69 39.31 74.69 39.31 75.41 38.72 76 38 76 37.28 76 36.69 75.41 36.69 74.69 36.69 74.69 36.69 57 36.69 57 36.69 56.28 37.28 55.69 38 55.69ZM 42.58 55.09C 43.28 54.9 44 55.31 44.18 56.01 44.18 56.01 45.37 60.44 45.37 60.44 45.56 61.14 45.14 61.86 44.44 62.05 43.74 62.24 43.03 61.82 42.84 61.12 42.84 61.12 41.65 56.69 41.65 56.69 41.46 55.99 41.88 55.27 42.58 55.09ZM 46.84 53.32C 47.47 52.96 48.27 53.17 48.63 53.8 48.63 53.8 57.48 69.12 57.48 69.12 57.84 69.75 57.63 70.55 57 70.91 56.37 71.27 55.57 71.06 55.21 70.43 55.21 70.43 46.37 55.11 46.37 55.11 46 54.48 46.22 53.68 46.84 53.32ZM 55.6 55.6C 55.09 56.12 54.26 56.12 53.75 55.6 53.75 55.6 50.51 52.36 50.51 52.36 50 51.85 50 51.02 50.51 50.51 51.02 50 51.85 50 52.36 50.51 52.36 50.51 55.6 53.75 55.6 53.75 56.12 54.26 56.12 55.09 55.6 55.6ZM 25.49 50.51C 26 51.02 26 51.85 25.49 52.36 25.49 52.36 22.25 55.6 22.25 55.6 21.74 56.12 20.91 56.12 20.4 55.6 19.88 55.09 19.88 54.26 20.4 53.75 20.4 53.75 23.64 50.51 23.64 50.51 24.15 50 24.98 50 25.49 50.51ZM 23.64 25.49C 23.64 25.49 20.4 22.25 20.4 22.25 19.88 21.74 19.88 20.91 20.4 20.4 20.91 19.88 21.74 19.88 22.25 20.4 22.25 20.4 25.49 23.64 25.49 23.64 26 24.15 26 24.98 25.49 25.49 24.98 26 24.15 26 23.64 25.49ZM 50.51 25.49C 50 24.98 50 24.15 50.51 23.64 50.51 23.64 53.75 20.4 53.75 20.4 54.26 19.88 55.09 19.88 55.6 20.4 56.12 20.91 56.12 21.74 55.6 22.25 55.6 22.25 52.36 25.49 52.36 25.49 51.85 26 51.02 26 50.51 25.49ZM 38 52.41C 30.04 52.41 23.59 45.96 23.59 38 23.59 30.04 30.04 23.59 38 23.59 45.96 23.59 52.41 30.04 52.41 38 52.41 45.96 45.96 52.41 38 52.41ZM 56.01 31.82C 56.01 31.82 60.44 30.63 60.44 30.63 61.14 30.44 61.86 30.86 62.05 31.56 62.24 32.26 61.82 32.97 61.12 33.16 61.12 33.16 56.69 34.35 56.69 34.35 55.99 34.54 55.27 34.12 55.09 33.42 54.9 32.72 55.31 32 56.01 31.82ZM 56.69 41.65C 56.69 41.65 61.12 42.84 61.12 42.84 61.82 43.03 62.24 43.74 62.05 44.44 61.86 45.14 61.14 45.56 60.44 45.37 60.44 45.37 56.01 44.18 56.01 44.18 55.31 44 54.9 43.28 55.09 42.58 55.27 41.88 55.99 41.46 56.69 41.65ZM 53.32 46.84C 53.68 46.22 54.48 46 55.11 46.37 55.11 46.37 70.43 55.21 70.43 55.21 71.06 55.57 71.27 56.37 70.91 57 70.55 57.63 69.75 57.84 69.12 57.48 69.12 57.48 53.8 48.63 53.8 48.63 53.17 48.27 52.96 47.47 53.32 46.84Z" fill="rgb(127,127,127)"/></svg>
