<?xml version="1.0" encoding="utf-8"?>
<svg xmlns="http://www.w3.org/2000/svg"
	xmlns:xlink="http://www.w3.org/1999/xlink"
	width="40px" height="40px">
<circle fill="rgb(255,255,255)" cx="20.00" cy="20.00" r="20.00"/>
<path fill="rgb(121,175,33)" fill-rule="evenodd" d="M 31 19.46C 30.26 19.58 29.19 19.45 28.62 19.22 29.8 19.13 30.6 18.61 30.91 17.91 30.48 18.16 29.16 18.44 28.43 18.17 28.4 18.01 28.36 17.85 28.32 17.71 27.76 15.73 25.86 14.14 23.87 14.33 24.03 14.27 24.19 14.21 24.35 14.16 24.57 14.08 25.86 13.88 25.66 13.44 25.49 13.05 23.91 13.73 23.62 13.82 24.01 13.68 24.66 13.43 24.72 13 24.13 13.08 23.54 13.35 23.08 13.75 23.25 13.58 23.37 13.37 23.4 13.15 21.8 14.14 20.87 16.13 20.11 18.06 19.52 17.5 18.99 17.06 18.52 16.82 17.2 16.14 15.62 15.42 13.13 14.53 13.06 15.32 13.54 16.38 14.93 17.08 14.63 17.04 14.08 17.13 13.64 17.23 13.82 18.14 14.4 18.89 15.99 19.26 15.26 19.3 14.89 19.46 14.55 19.81 14.88 20.44 15.69 21.19 17.13 21.03 15.52 21.7 16.48 22.95 17.79 22.76 15.55 25 12.03 24.84 10 22.97 15.29 29.94 26.78 27.09 28.49 20.37 29.78 20.38 30.53 19.94 31 19.46Z"/>
</svg>
